<?xml version="1.0" encoding="UTF-8"?>
<svg id="Layer_1" data-name="Layer 1" xmlns="http://www.w3.org/2000/svg" viewBox="0 0 1806.32 1288.72">
  <defs>
    <style>
      .cls-1 {
        fill: #3b5bb3;
      }

      .cls-1, .cls-2, .cls-3, .cls-4, .cls-5, .cls-6, .cls-7, .cls-8, .cls-9, .cls-10, .cls-11, .cls-12, .cls-13, .cls-14, .cls-15, .cls-16, .cls-17, .cls-18, .cls-19, .cls-20, .cls-21, .cls-22, .cls-23, .cls-24, .cls-25, .cls-26, .cls-27 {
        fill-rule: evenodd;
      }

      .cls-2 {
        fill: #f06a30;
      }

      .cls-28, .cls-21 {
        fill: #b4d6f7;
      }

      .cls-3 {
        fill: #125aa3;
      }

      .cls-4 {
        fill: #f08261;
      }

      .cls-5 {
        fill: #d2dfee;
      }

      .cls-6 {
        fill: #fefefe;
      }

      .cls-7 {
        fill: #fff;
      }

      .cls-29 {
        fill: #eff9fc;
      }

      .cls-30, .cls-16 {
        fill: #fbbfa8;
      }

      .cls-8 {
        fill: #71afed;
      }

      .cls-9 {
        fill: #284191;
      }

      .cls-10 {
        fill: #bbdbfa;
      }

      .cls-11 {
        fill: #1e77d1;
      }

      .cls-12 {
        fill: #a4d0fc;
      }

      .cls-31 {
        opacity: .42;
      }

      .cls-13 {
        fill: #4f8ecc;
      }

      .cls-14, .cls-32 {
        fill: #dfedfa;
      }

      .cls-15, .cls-33 {
        fill: #fc9774;
      }

      .cls-17, .cls-34 {
        fill: #61a0e0;
      }

      .cls-35 {
        opacity: .35;
      }

      .cls-18 {
        fill: #ffb27d;
      }

      .cls-19 {
        fill: #699dee;
      }

      .cls-20 {
        fill: #ffe2dc;
      }

      .cls-22 {
        fill: #c5def8;
      }

      .cls-23 {
        fill: #e8945b;
      }

      .cls-24 {
        fill: #4567c6;
      }

      .cls-25 {
        fill: #4a75cb;
      }

      .cls-26 {
        fill: #f57a44;
      }

      .cls-27 {
        fill: #eaeff8;
      }
    </style>
  </defs>
  <g>
    <path class="cls-27" d="M903.17,1209.61c210.08,0,403.41,3.14,556.83,8.41,375.47-214.61,245.45-632.93,110.64-869.55C1383.02,19.16,939.68-99.21,756.3,163.54c-248.91,356.64-489.02,232.18-618.68,503.04-129.66,270.85,67.25,530.51,208.71,551.44,153.42-5.27,346.75-8.41,556.84-8.41h0ZM574.18,296.38c-96.1,73.14-255.06,129.82-307.84,52.06-39.44-58.1,9.14-167.1,104.28-249.74C465.69,16.12,593.08-33.87,662.5,26.94c82.39,72.16-14.31,213.11-88.32,269.44Z"/>
    <path class="cls-5" d="M903.16,1209.61c498.8,0,903.16,17.7,903.16,39.56s-404.36,39.56-903.16,39.56S0,1271.01,0,1249.17s404.36-39.56,903.16-39.56Z"/>
    <path class="cls-7" d="M1194.42,117.73c225.57,50.25,369.11,257.7,383.17,357.85,5.77,41.09-4.92-55.08-119.99-142.65-102.84-78.26-182.9-92.76-305.24-102.22-86.46-6.68-177-17.31-170.57-68.88,5.09-40.72,67.01-76.55,212.63-44.1h0ZM604.58,33.82c38.83,2.34,62.47,34.22,64.1,70.99.69,15.64-11.59-25.26-54.64-30.95-26.7-3.53-30.71,4.34-40.28-6.68-9.57-11.02-.48-35.24,30.83-33.36Z"/>
    <path class="cls-5" d="M321.37,1118.46c-10.3-12.89-24.79-23.55-29.04-39.49-5.02-18.81,6.03-38.63,3.29-57.91-3.44-24.27-26.82-40.01-39.5-60.98-12.43-20.54-6.61-27.45-7.74-51.42-1.7-36.13-31.34-81.74-70.82-69.51-40.09,12.44-33.54,49.7-26.49,77.74,5.03,19.96,1.75,22.84-3.14,42.84-5.9,24.16-24.92,47.51-16.97,71.08,4.92,14.57,19.2,24.41,24.37,38.89,5.86,16.41-1.23,34.22-3.96,51.43-5.75,36.24,2.5,66.39,28.83,96.31,2.83,2.69,5.77,5.19,8.82,7.51,36.88-2.09,78.38-4.01,123.88-5.73l.33-.35c24.1-26.31,31.28-71.45,8.14-100.4Z"/>
    <path class="cls-7" d="M195.77,871.78c-.63-1.63-2.46-2.45-4.09-1.83-1.63.63-2.45,2.46-1.83,4.09,3.13,8.19,5.76,16.77,8.02,25.7-.91-.83-1.84-1.63-2.81-2.4-4.3-3.46-9.18-6.47-14.65-9.07-1.58-.74-3.47-.06-4.21,1.52-.74,1.58-.07,3.46,1.51,4.21,5.02,2.37,9.48,5.13,13.39,8.27,3.7,2.97,6.92,6.31,9.65,9.98,4.05,19.33,6.7,40.12,9.08,62.04-3.67-5.7-7.58-10.82-11.75-15.35-7.24-7.87-15.25-13.99-24.03-18.33-1.57-.77-3.47-.13-4.24,1.43-.77,1.56-.14,3.47,1.43,4.23,8.05,3.99,15.44,9.66,22.17,16.97,6.69,7.26,12.71,16.16,18.06,26.68l.61,5.95c1.35,13.06,2.73,26.46,4.37,40.15,0,.13.02.27.05.39,1.71,14.3,3.71,28.91,6.22,43.76-6.84-10.57-14.21-19.92-22.1-28.04-11.56-11.9-24.24-21.17-38.03-27.81-1.58-.76-3.47-.1-4.23,1.48-.76,1.58-.09,3.47,1.48,4.22,13.12,6.32,25.2,15.17,36.23,26.53,11.01,11.33,20.99,25.16,29.93,41.5,3.9,19.68,8.86,39.71,15.46,59.97v.02l.02.07h0c3.24,9.94,6.87,19.93,10.95,29.96-9.59-8.24-19.77-15.34-30.53-21.34-15-8.35-31.12-14.53-48.33-18.52-1.7-.39-3.41.66-3.81,2.38-.4,1.7.66,3.41,2.37,3.81,16.67,3.86,32.24,9.81,46.69,17.86,14.29,7.96,27.53,17.99,39.72,30.08,2.81,6.23,5.8,12.48,9.01,18.73l6.97-.3c-11.22-21.56-19.97-43.06-26.92-64.32-1.18-15.46.64-30.91,5.49-46.34,4.92-15.66,12.96-31.35,24.1-47.04,1.01-1.42.67-3.41-.75-4.41-1.42-1.01-3.4-.68-4.41.75-11.51,16.24-19.83,32.51-24.96,48.8-2.91,9.26-4.79,18.51-5.63,27.76-9.51-34.31-14.78-67.86-18.62-99.87,3.72-13.57,7.87-25.06,12.46-34.45,4.56-9.34,9.52-16.55,14.86-21.61,1.27-1.2,1.33-3.2.13-4.47-1.2-1.27-3.2-1.33-4.47-.13-5.93,5.6-11.34,13.42-16.23,23.44-3.05,6.24-5.9,13.35-8.57,21.37-.93-8.46-1.79-16.8-2.64-25l-.66-6.39c0-.11-.02-.23-.04-.35-4.51-43.5-9.05-83.09-21.91-116.72Z"/>
    <path class="cls-22" d="M215.33,1135.47c-10.99-5.93-24.25-9.06-31.93-18.91-9.07-11.63-7.24-28.7-14.86-41.31-9.59-15.89-30.53-19.93-45.59-30.77-14.74-10.63-12.73-17.16-20.62-33.53-11.9-24.66-46.05-47.65-69.93-27.44-24.24,20.54-8.64,44.56,4.58,62,9.42,12.42,7.98,15.39,10.51,30.77,3.05,18.57-3.29,40.47,9.24,54.53,7.74,8.69,20.61,11.32,28.5,19.88,8.95,9.69,9.28,24.2,12.48,37,4.24,16.99,11.65,30.65,23.36,41.68,31.6-2.39,68.73-4.62,110.65-6.67,3.21-4.59,5.83-9.6,7.7-14.89,8.99-25.47.62-59.04-24.08-72.35Z"/>
    <path class="cls-7" d="M54.75,1000.85c-.92-.96-2.44-.98-3.39-.06-.95.91-.98,2.43-.06,3.38,4.61,4.78,8.98,9.97,13.2,15.51-.88-.3-1.76-.57-2.67-.83-4.02-1.13-8.32-1.8-12.89-1.97-1.33-.06-2.44.98-2.48,2.3-.05,1.32.98,2.44,2.3,2.49,4.2.16,8.12.76,11.78,1.79,3.46.98,6.69,2.34,9.68,4.11,8.55,12.27,16.55,25.96,24.71,40.52-4.25-2.89-8.49-5.29-12.74-7.21-7.37-3.33-14.76-5.22-22.17-5.65-1.32-.07-2.45.93-2.53,2.26-.07,1.31.93,2.44,2.25,2.53,6.79.38,13.62,2.14,20.47,5.24,6.81,3.09,13.65,7.5,20.48,13.25l2.19,3.96c4.81,8.69,9.74,17.62,14.94,26.68.05.08.1.17.15.26,5.43,9.45,11.14,19.04,17.29,28.63-7.89-5.33-15.79-9.66-23.69-12.98-11.58-4.86-23.16-7.56-34.73-8.1-1.32-.06-2.44.96-2.51,2.29-.06,1.32.96,2.44,2.29,2.51,11.01.52,22.04,3.09,33.09,7.73,11.02,4.64,22.07,11.32,33.14,20.05,8.54,12.55,17.94,25.03,28.53,37.19v.02s.05.03.05.03h0c5.2,5.97,10.69,11.85,16.5,17.63-9.12-2.89-18.31-4.83-27.59-5.82-12.93-1.37-25.98-.9-39.15,1.42-1.3.23-2.18,1.48-1.95,2.78.22,1.3,1.47,2.18,2.78,1.95,12.76-2.25,25.37-2.72,37.82-1.4,12.32,1.31,24.51,4.37,36.58,9.17,4.16,3.85,8.49,7.64,12.98,11.35l7.14-.37c-15.68-12.53-29.29-25.89-41.34-39.71-5.41-10.4-8.71-21.71-9.9-33.91-1.21-12.37-.27-25.66,2.84-39.91.28-1.3-.54-2.57-1.83-2.85-1.29-.28-2.57.54-2.85,1.83-3.21,14.72-4.18,28.53-2.92,41.38.71,7.31,2.14,14.32,4.3,21.01-16.79-21.08-30.39-42.89-42.56-64.05-1.43-10.55-1.94-19.79-1.52-27.69.41-7.86,1.72-14.34,3.95-19.45.53-1.21-.02-2.63-1.24-3.16-1.21-.53-2.63.02-3.15,1.23-2.46,5.66-3.92,12.71-4.35,21.14-.27,5.24-.15,11.04.36,17.42-3.15-5.62-6.22-11.17-9.24-16.64l-2.35-4.25c-.04-.07-.09-.16-.13-.23-16.03-28.97-30.92-55.2-49.85-74.81Z"/>
    <path class="cls-5" d="M1445.08,1106.24c11.24-14.07,27.06-25.7,31.7-43.1,5.49-20.53-6.58-42.14-3.59-63.19,3.76-26.49,29.27-43.65,43.11-66.54,13.55-22.42,7.2-29.96,8.44-56.12,1.85-39.43,34.2-89.2,77.29-75.86,43.75,13.57,36.6,54.24,28.9,84.83-5.49,21.8-1.91,24.92,3.42,46.75,6.43,26.37,27.19,51.86,18.52,77.57-5.36,15.91-20.96,26.63-26.59,42.45-6.4,17.91,1.35,37.33,4.32,56.12,6.28,39.55-2.73,72.45-31.46,105.1-3.47,3.31-7.11,6.36-10.89,9.14-39.74-2.03-84.09-3.87-132.32-5.5-.67-.68-1.33-1.38-1.97-2.08-26.29-28.72-34.14-77.97-8.88-109.57Z"/>
    <path class="cls-7" d="M1582.15,837.05c.68-1.78,2.69-2.68,4.47-2,1.78.68,2.68,2.68,1.99,4.47-3.42,8.92-6.29,18.28-8.75,28.02.99-.9,2.01-1.76,3.07-2.61,4.7-3.77,10.02-7.07,15.99-9.89,1.72-.81,3.78-.08,4.59,1.65.81,1.73.08,3.79-1.65,4.6-5.48,2.58-10.35,5.6-14.61,9.03-4.04,3.24-7.56,6.88-10.54,10.89-4.41,21.11-7.3,43.8-9.91,67.71,4.01-6.23,8.28-11.82,12.82-16.75,7.9-8.59,16.64-15.26,26.22-20,1.71-.85,3.77-.15,4.62,1.55.85,1.71.15,3.78-1.55,4.63-8.78,4.35-16.85,10.53-24.2,18.51-7.3,7.93-13.87,17.65-19.7,29.12l-.67,6.49c-1.47,14.25-2.98,28.88-4.76,43.8,0,.15-.03.3-.06.43-1.87,15.61-4.05,31.54-6.79,47.75,7.47-11.53,15.51-21.73,24.12-30.59,12.62-12.99,26.44-23.11,41.5-30.36,1.71-.81,3.78-.1,4.6,1.63.83,1.71.11,3.78-1.61,4.6-14.32,6.9-27.5,16.55-39.54,28.94-12.01,12.37-22.89,27.47-32.65,45.31-4.25,21.46-9.67,43.33-16.86,65.44h0s-.03.09-.03.09h0c-3.52,10.84-7.49,21.75-11.94,32.68,10.45-8.97,21.57-16.74,33.32-23.28,16.36-9.12,33.95-15.85,52.74-20.2,1.86-.43,3.71.73,4.15,2.59.44,1.86-.72,3.71-2.58,4.15-18.2,4.21-35.19,10.71-50.95,19.49-15.6,8.69-30.05,19.63-43.35,32.83-3.27,7.26-6.79,14.54-10.55,21.84l-7.64-.3c12.61-24,22.39-47.94,30.12-71.62,1.3-16.87-.69-33.72-5.99-50.56-5.37-17.09-14.14-34.21-26.29-51.35-1.1-1.55-.73-3.71.82-4.81,1.55-1.11,3.71-.74,4.81.81,12.57,17.72,21.64,35.48,27.23,53.26,3.18,10.1,5.23,20.2,6.15,30.29,10.37-37.45,16.12-74.05,20.32-108.99-4.06-14.8-8.59-27.33-13.59-37.59-4.98-10.2-10.39-18.06-16.22-23.58-1.39-1.3-1.46-3.49-.14-4.87,1.3-1.39,3.49-1.45,4.88-.15,6.47,6.12,12.37,14.65,17.71,25.59,3.32,6.81,6.43,14.57,9.36,23.31,1.01-9.23,1.95-18.33,2.88-27.27l.71-6.97c0-.12.02-.26.04-.38,4.91-47.48,9.88-90.67,23.91-127.37Z"/>
    <path class="cls-22" d="M1560.8,1124.79c12-6.47,26.45-9.88,34.84-20.63,9.91-12.69,7.91-31.31,16.22-45.08,10.47-17.33,33.32-21.74,49.75-33.57,16.09-11.6,13.89-18.74,22.5-36.6,12.98-26.91,50.26-52.01,76.32-29.93,26.44,22.4,9.42,48.62-5,67.65-10.29,13.56-8.71,16.8-11.47,33.59-3.32,20.26,3.58,44.16-10.07,59.51-8.46,9.48-22.5,12.34-31.11,21.68-9.76,10.59-10.12,26.41-13.61,40.38-4.7,18.81-12.95,33.86-26.04,46.01-34.5-2.35-74.53-4.53-119.27-6.5-3.93-5.36-7.11-11.26-9.32-17.54-9.81-27.79-.68-64.42,26.28-78.96Z"/>
    <path class="cls-7" d="M1736.03,977.89c1-1.04,2.66-1.06,3.71-.07,1.03,1.01,1.06,2.66.06,3.7-5.03,5.21-9.8,10.88-14.4,16.94.96-.33,1.94-.64,2.92-.91,4.39-1.24,9.07-1.95,14.07-2.15,1.45-.06,2.65,1.07,2.71,2.51.05,1.45-1.06,2.66-2.51,2.72-4.59.18-8.88.84-12.86,1.95-3.77,1.06-7.3,2.56-10.56,4.47-9.33,13.39-18.07,28.34-26.96,44.23,4.64-3.16,9.26-5.78,13.89-7.87,8.04-3.64,16.11-5.69,24.18-6.17,1.45-.08,2.68,1.02,2.76,2.45.08,1.45-1.01,2.68-2.46,2.77-7.4.42-14.84,2.34-22.33,5.72-7.44,3.37-14.88,8.19-22.36,14.44l-2.38,4.33c-5.25,9.49-10.64,19.23-16.3,29.1-.05.1-.1.19-.17.28-5.92,10.31-12.16,20.78-18.87,31.25,8.62-5.82,17.24-10.54,25.86-14.16,12.63-5.31,25.27-8.26,37.9-8.85,1.45-.07,2.67,1.06,2.73,2.49s-1.05,2.67-2.49,2.73c-12.02.57-24.05,3.37-36.12,8.44-12.02,5.05-24.08,12.35-36.17,21.88-9.32,13.69-19.57,27.32-31.13,40.58h0s-.05.06-.05.06h0c-5.68,6.51-11.67,12.93-18.01,19.23,9.95-3.15,19.99-5.27,30.11-6.34,14.09-1.5,28.35-.98,42.72,1.55,1.42.25,2.37,1.6,2.12,3.03-.25,1.42-1.6,2.37-3.03,2.13-13.93-2.46-27.69-2.97-41.27-1.53-13.44,1.43-26.74,4.77-39.92,10.02-4.94,4.56-10.09,9.05-15.47,13.45l-7.89-.37c17.7-13.99,33-28.95,46.5-44.43,5.9-11.36,9.51-23.7,10.8-37,1.33-13.5.29-28.01-3.09-43.55-.32-1.41.58-2.81,1.99-3.12,1.4-.31,2.8.59,3.11,2,3.51,16.06,4.57,31.12,3.19,45.17-.78,7.98-2.34,15.62-4.69,22.92,18.32-23,33.17-46.8,46.44-69.89,1.56-11.52,2.12-21.59,1.67-30.22-.44-8.58-1.89-15.66-4.31-21.22-.58-1.33.03-2.87,1.35-3.44,1.32-.58,2.87.02,3.44,1.35,2.69,6.17,4.28,13.86,4.75,23.07.3,5.72.17,12.05-.38,19,3.44-6.12,6.78-12.18,10.08-18.14l2.57-4.65c.04-.08.08-.17.13-.25,17.5-31.61,33.76-60.23,54.4-81.64Z"/>
    <path class="cls-7" d="M837.59,262.3c-3.23,44.36-9.78,50.48-52.07,53.9,42.29,3.42,48.84,9.54,52.07,53.9,3.23-44.36,9.78-50.48,52.07-53.9-42.3-3.42-48.84-9.54-52.07-53.9h0ZM1009.53,379.31c-1.72,23.68-5.22,26.95-27.8,28.77,22.58,1.82,26.08,5.09,27.8,28.78,1.72-23.68,5.22-26.95,27.8-28.78-22.58-1.82-26.08-5.09-27.8-28.77h0ZM934.23,197.01c-1.75,23.99-5.29,27.3-28.16,29.15,22.87,1.84,26.41,5.16,28.16,29.15,1.75-23.99,5.29-27.3,28.16-29.15-22.87-1.84-26.41-5.16-28.16-29.15Z"/>
    <path class="cls-7" d="M775.24,989.68c2.62,35.94,7.92,40.89,42.19,43.67-34.27,2.77-39.57,7.73-42.19,43.66-2.62-35.93-7.92-40.89-42.19-43.66,34.27-2.78,39.57-7.73,42.19-43.67h0ZM635.94,1084.47c1.4,19.19,4.23,21.84,22.52,23.31-18.29,1.48-21.12,4.13-22.52,23.31-1.4-19.18-4.23-21.83-22.52-23.31,18.29-1.47,21.12-4.12,22.52-23.31h0ZM696.94,936.78c1.42,19.44,4.28,22.12,22.81,23.62-18.53,1.5-21.39,4.17-22.81,23.61-1.42-19.44-4.28-22.11-22.81-23.61,18.53-1.5,21.4-4.18,22.81-23.62Z"/>
    <path class="cls-7" d="M1322.67,901.08c-2.01,27.52-6.07,31.31-32.3,33.43,26.24,2.12,30.29,5.91,32.3,33.43,2-27.52,6.07-31.31,32.29-33.43-26.23-2.12-30.29-5.92-32.29-33.43h0ZM1429.32,973.66c-1.08,14.69-3.24,16.72-17.25,17.85,14.01,1.13,16.17,3.16,17.25,17.85,1.06-14.69,3.23-16.72,17.24-17.85-14-1.13-16.17-3.16-17.24-17.85h0ZM1382.61,860.58c-1.09,14.88-3.28,16.94-17.46,18.08,14.18,1.15,16.37,3.2,17.46,18.08,1.09-14.88,3.28-16.94,17.47-18.08-14.19-1.15-16.38-3.2-17.47-18.08Z"/>
  </g>
  <g>
    <path class="cls-17" d="M360.72,170.01h677.92c22,0,39.91,17.93,39.91,39.92v972.07c0,22-17.92,39.92-39.91,39.92H360.72c-22,0-39.92-17.92-39.92-39.92V209.93c0-22,17.93-39.92,39.92-39.92Z"/>
    <path class="cls-12" d="M360.72,179.86h677.91c16.54,0,30.08,13.54,30.08,30.06v972.08c0,16.52-13.54,30.07-30.08,30.07H360.72c-16.53,0-30.07-13.55-30.07-30.07V209.93c0-16.52,13.54-30.06,30.07-30.06Z"/>
    <path class="cls-8" d="M878.17,216.86c0,12.27-14.69,22.21-32.81,22.21h-291.36c-18.11,0-32.8-9.94-32.8-22.21v-66.59c0-12.26,14.69-22.2,32.8-22.2h291.36c18.12,0,32.81,9.94,32.81,22.2v66.59h0ZM876.86,87.37h-354.35c-22.03,0-39.89,14.91-39.89,33.3v99.9c0,18.38,17.86,33.28,39.89,33.28h354.35c22.03,0,39.9-14.9,39.9-33.28v-99.9c0-18.38-17.87-33.29-39.9-33.3Z"/>
    <rect class="cls-29" x="380.58" y="279.75" width="638.19" height="887.93"/>
    <path class="cls-8" d="M880.83,279.75c0,18.39-14.91,33.29-33.29,33.29h-295.72c-18.39,0-33.29-14.9-33.29-33.29v-99.89c0-18.39,14.9-33.3,33.29-33.3h295.72c18.38,0,33.29,14.92,33.29,33.3v99.89Z"/>
    <path class="cls-12" d="M615.82,231.66c0,15.32-12.43,27.75-27.76,27.75s-27.74-12.42-27.74-27.75,12.42-27.74,27.74-27.74,27.76,12.41,27.76,27.74Z"/>
    <path class="cls-12" d="M846.52,231.66c0,15.32-12.42,27.75-27.75,27.75s-27.74-12.42-27.74-27.75,12.42-27.74,27.74-27.74,27.75,12.41,27.75,27.74Z"/>
    <path class="cls-21" d="M458.84,590.85h481.69c4.47,0,8.12,3.33,8.12,7.39h0c0,4.07-3.66,7.4-8.12,7.4h-481.69c-4.46,0-8.12-3.33-8.12-7.4h0c0-4.06,3.65-7.39,8.12-7.39Z"/>
    <path class="cls-32" d="M638.08,210.86h123.21c2.83,0,5.12,2.3,5.12,5.12v1.94c0,2.83-2.3,5.12-5.12,5.12h-123.22c-2.83,0-5.12-2.29-5.12-5.12v-1.94c0-2.83,2.3-5.12,5.12-5.12Z"/>
    <path class="cls-14" d="M638.07,236.78h123.22c2.83,0,5.12,2.29,5.12,5.12v1.94c0,2.83-2.29,5.12-5.12,5.12h-123.22c-2.83,0-5.12-2.29-5.12-5.12v-1.94c0-2.83,2.29-5.12,5.12-5.12Z"/>
    <path class="cls-14" d="M840.82,233.31c0,13.08-10.61,23.69-23.7,23.69-13.08,0-23.69-10.61-23.69-23.69,0-13.09,10.61-23.69,23.69-23.69s23.7,10.6,23.7,23.69Z"/>
    <path class="cls-14" d="M609.29,235.21c0,13.08-10.61,23.69-23.69,23.69-13.08,0-23.69-10.61-23.69-23.69,0-13.09,10.61-23.69,23.69-23.69s23.69,10.6,23.69,23.69Z"/>
    <path class="cls-7" d="M426.7,332.94h194.02c8.49,0,15.44,6.94,15.44,15.44v189.42c0,8.5-6.95,15.44-15.44,15.44h-194.02c-8.5,0-15.44-6.94-15.44-15.44v-189.42c0-8.49,6.94-15.44,15.44-15.44Z"/>
    <path class="cls-21" d="M981.63,389.57h-45.34c-2.73,0-4.95-2.21-4.95-4.94s2.22-4.95,4.95-4.95h45.34c2.73,0,4.95,2.21,4.95,4.95s-2.22,4.95-4.95,4.94h0ZM789.5,446.11h-125.79c-2.74,0-4.95-2.22-4.95-4.95s2.21-4.94,4.95-4.94h125.79c2.73,0,4.95,2.21,4.95,4.94s-2.22,4.95-4.95,4.95h0ZM932.32,446.11h-122.53c-2.73,0-4.94-2.22-4.94-4.95s2.21-4.94,4.94-4.94h122.53c2.73,0,4.94,2.21,4.94,4.94s-2.21,4.95-4.94,4.95h0ZM741.6,417.84h-77.89c-2.74,0-4.95-2.21-4.95-4.95s2.21-4.94,4.95-4.94h77.89c2.73,0,4.94,2.21,4.94,4.94,0,2.73-2.21,4.95-4.94,4.95h0ZM981.63,417.84h-218.25c-2.73,0-4.95-2.21-4.95-4.95s2.21-4.94,4.95-4.94h218.25c2.73,0,4.95,2.21,4.95,4.94s-2.22,4.95-4.95,4.95h0ZM915.3,389.57h-251.58c-2.74,0-4.95-2.21-4.95-4.94s2.21-4.95,4.95-4.95h251.58c2.74,0,4.95,2.21,4.95,4.95s-2.21,4.95-4.95,4.94Z"/>
    <path class="cls-21" d="M981.63,473.74h-45.34c-2.73,0-4.95-2.21-4.95-4.94s2.22-4.95,4.95-4.95h45.34c2.73,0,4.95,2.21,4.95,4.95s-2.22,4.95-4.95,4.94h0ZM789.5,530.28h-125.79c-2.74,0-4.95-2.21-4.95-4.95s2.21-4.94,4.95-4.94h125.79c2.73,0,4.95,2.21,4.95,4.94s-2.22,4.95-4.95,4.95h0ZM932.32,530.28h-122.53c-2.73,0-4.94-2.21-4.94-4.95s2.21-4.94,4.94-4.94h122.53c2.73,0,4.94,2.21,4.94,4.94s-2.21,4.95-4.94,4.95h0ZM741.6,502.01h-77.89c-2.74,0-4.95-2.21-4.95-4.95s2.21-4.94,4.95-4.94h77.89c2.73,0,4.94,2.21,4.94,4.94,0,2.74-2.21,4.95-4.94,4.95h0ZM981.63,502.01h-218.25c-2.73,0-4.95-2.21-4.95-4.95s2.21-4.94,4.95-4.94h218.25c2.73,0,4.95,2.21,4.95,4.94s-2.22,4.95-4.95,4.95h0ZM915.3,473.74h-251.58c-2.74,0-4.95-2.21-4.95-4.94s2.21-4.95,4.95-4.95h251.58c2.74,0,4.95,2.21,4.95,4.95s-2.21,4.95-4.95,4.94Z"/>
    <path class="cls-21" d="M428.09,632.78h543.18c5.04,0,9.16,3.32,9.16,7.4h0c0,4.07-4.12,7.4-9.16,7.4H428.09c-5.04,0-9.16-3.32-9.16-7.4h0c0-4.07,4.12-7.4,9.16-7.4Z"/>
    <path class="cls-21" d="M424.07,684.46h64.65c2.83,0,5.14,2.32,5.14,5.14v63.11c0,2.83-2.31,5.15-5.14,5.15h-64.65c-2.83,0-5.14-2.32-5.14-5.15v-63.11c0-2.83,2.31-5.14,5.14-5.14Z"/>
    <path class="cls-21" d="M603.02,740.25h-77.89c-2.73,0-4.95-2.22-4.95-4.95s2.22-4.95,4.95-4.95h77.89c6.5,0,6.49,9.91,0,9.91h0ZM689.36,711.98h-164.23c-2.73,0-4.95-2.21-4.95-4.95s2.22-4.95,4.95-4.95h164.23c6.52,0,6.51,9.9,0,9.9Z"/>
    <path class="cls-21" d="M722.66,684.46h64.65c2.83,0,5.14,2.32,5.14,5.14v63.11c0,2.83-2.31,5.15-5.14,5.15h-64.65c-2.83,0-5.14-2.32-5.14-5.15v-63.11c0-2.83,2.31-5.14,5.14-5.14Z"/>
    <path class="cls-21" d="M901.6,740.25h-77.89c-2.73,0-4.95-2.22-4.95-4.95s2.22-4.95,4.95-4.95h77.89c6.5,0,6.5,9.91,0,9.91h0ZM987.94,711.98h-164.23c-2.73,0-4.95-2.21-4.95-4.95s2.22-4.95,4.95-4.95h164.23c6.52,0,6.51,9.9,0,9.9Z"/>
    <path class="cls-21" d="M722.66,799.73h64.65c2.83,0,5.14,2.31,5.14,5.14v63.12c0,2.83-2.31,5.14-5.14,5.14h-64.65c-2.83,0-5.14-2.31-5.14-5.14v-63.12c0-2.83,2.31-5.14,5.14-5.14Z"/>
    <path class="cls-21" d="M901.6,855.51h-77.89c-2.73,0-4.95-2.21-4.95-4.95s2.22-4.95,4.95-4.95h77.89c6.5,0,6.5,9.91,0,9.9h0ZM987.94,827.25h-164.23c-2.73,0-4.95-2.22-4.95-4.95s2.22-4.95,4.95-4.95h164.23c6.52,0,6.51,9.91,0,9.9Z"/>
    <path class="cls-21" d="M722.66,915h64.65c2.83,0,5.14,2.32,5.14,5.15v63.11c0,2.83-2.31,5.14-5.14,5.14h-64.65c-2.83,0-5.14-2.31-5.14-5.14v-63.11c0-2.83,2.31-5.15,5.14-5.15Z"/>
    <path class="cls-21" d="M901.6,970.78h-77.89c-2.73,0-4.95-2.22-4.95-4.95s2.22-4.95,4.95-4.95h77.89c6.5,0,6.5,9.91,0,9.9h0ZM987.94,942.52h-164.23c-2.73,0-4.95-2.22-4.95-4.95s2.22-4.95,4.95-4.95h164.23c6.52,0,6.51,9.91,0,9.91Z"/>
    <path class="cls-21" d="M722.66,1030.27h64.65c2.83,0,5.14,2.32,5.14,5.14v63.11c0,2.83-2.31,5.15-5.14,5.15h-64.65c-2.83,0-5.14-2.32-5.14-5.15v-63.11c0-2.83,2.31-5.14,5.14-5.14Z"/>
    <path class="cls-21" d="M901.6,1086.05h-77.89c-2.73,0-4.95-2.22-4.95-4.95s2.22-4.95,4.95-4.95h77.89c6.5,0,6.5,9.91,0,9.91h0ZM987.94,1057.78h-164.23c-2.73,0-4.95-2.21-4.95-4.95s2.22-4.94,4.95-4.94h164.23c6.52,0,6.51,9.91,0,9.9Z"/>
    <rect class="cls-28" x="418.93" y="799.73" width="272.82" height="118.89" rx="8.33" ry="8.33"/>
    <path class="cls-21" d="M424.07,943.82h64.65c2.83,0,5.14,2.31,5.14,5.14v63.12c0,2.83-2.31,5.14-5.14,5.14h-64.65c-2.83,0-5.14-2.31-5.14-5.14v-63.12c0-2.83,2.31-5.14,5.14-5.14Z"/>
    <path class="cls-21" d="M521.98,943.82h163.96c2.83,0,5.14,2.31,5.14,5.14v63.12c0,2.83-2.31,5.14-5.14,5.14h-163.96c-2.83,0-5.14-2.31-5.14-5.14v-63.12c0-2.83,2.31-5.14,5.14-5.14Z"/>
    <path class="cls-21" d="M424.07,1028.68h64.65c2.83,0,5.14,2.31,5.14,5.14v63.12c0,2.83-2.31,5.14-5.14,5.14h-64.65c-2.83,0-5.14-2.31-5.14-5.14v-63.12c0-2.83,2.31-5.14,5.14-5.14Z"/>
    <path class="cls-21" d="M521.98,1028.68h163.96c2.83,0,5.14,2.31,5.14,5.14v63.12c0,2.83-2.31,5.14-5.14,5.14h-163.96c-2.83,0-5.14-2.31-5.14-5.14v-63.12c0-2.83,2.31-5.14,5.14-5.14Z"/>
    <path class="cls-17" d="M761.62,746.55l29.65-48.64,12.22-20.04c2.14-3.51,1.03-8.08-2.47-10.22-3.5-2.14-8.08-1.03-10.22,2.48l-11.14,18.28-25.1,41.19-19.72-27.11c-2.41-3.32-7.06-4.07-10.39-1.66-3.33,2.41-4.07,7.06-1.66,10.39l26.28,36.13c2.41,3.32,7.07,4.07,10.4,1.66.93-.67,1.65-1.51,2.16-2.45Z"/>
    <path class="cls-17" d="M761.62,861.36l29.65-48.63,12.22-20.04c2.14-3.51,1.03-8.09-2.47-10.22-3.5-2.14-8.08-1.03-10.22,2.48l-11.14,18.28-25.1,41.19-19.72-27.12c-2.41-3.32-7.06-4.07-10.39-1.65-3.33,2.41-4.07,7.06-1.66,10.39l26.28,36.13c2.41,3.32,7.07,4.06,10.4,1.66.93-.66,1.65-1.51,2.16-2.46Z"/>
    <path class="cls-17" d="M761.62,976.17l29.65-48.63,12.22-20.05c2.14-3.51,1.03-8.08-2.47-10.21-3.5-2.14-8.08-1.03-10.22,2.47l-11.14,18.29-25.1,41.18-19.72-27.11c-2.41-3.32-7.06-4.07-10.39-1.65-3.33,2.41-4.07,7.06-1.66,10.38l26.28,36.14c2.41,3.32,7.07,4.06,10.4,1.65.93-.67,1.65-1.5,2.16-2.45Z"/>
    <path class="cls-17" d="M761.62,1090.99l29.65-48.63,12.22-20.05c2.14-3.51,1.03-8.09-2.47-10.21-3.5-2.14-8.08-1.03-10.22,2.47l-11.14,18.29-25.1,41.18-19.72-27.12c-2.41-3.32-7.06-4.07-10.39-1.65-3.33,2.41-4.07,7.06-1.66,10.39l26.28,36.13c2.41,3.33,7.07,4.07,10.4,1.66.93-.66,1.65-1.5,2.16-2.45Z"/>
    <g>
      <path class="cls-12" d="M520.89,344.76c14.19,41.56,55.79,97.8,53.09,136.59-1.97,28.28-22.04,48.07-53.09,48.51-31.05-.44-51.12-20.24-53.09-48.51-2.7-38.79,38.9-95.03,53.09-136.59Z"/>
      <g class="cls-31">
        <path class="cls-8" d="M520.89,344.76c1.77,5.18,3.96,10.58,6.44,16.15.76,55.71-61.47,132.25.2,153.19,16.49,5.6,28.85,1.21,37.86-6.39-8.98,13.5-24.45,21.86-44.5,22.15-31.05-.44-51.12-20.24-53.09-48.51-2.7-38.79,38.9-95.03,53.09-136.59Z"/>
      </g>
      <path class="cls-7" d="M491.5,515.53c-.8-.57-.99-1.68-.42-2.48.57-.8,1.68-.99,2.48-.43,3.65,2.58,7.82,4.59,12.42,5.97,4.6,1.38,9.59,2.13,14.91,2.21,9.83-.16,18.55-2.58,25.57-7.01,6.91-4.36,12.21-10.67,15.36-18.69.36-.92,1.39-1.37,2.31-1.01.92.36,1.37,1.39,1.01,2.31-3.43,8.75-9.22,15.64-16.78,20.41-7.58,4.78-16.94,7.4-27.45,7.56h-.05c-5.68-.09-11.02-.89-15.9-2.36-4.95-1.48-9.47-3.67-13.46-6.48h0ZM568.26,483.54c-.11.98-.99,1.69-1.97,1.58-.98-.11-1.68-.99-1.58-1.97l.13-1.21.1-1.22c.22-3.11.09-6.33-.29-9.59-.38-3.28-1.02-6.59-1.82-9.85-.6-2.46-1.32-4.93-2.09-7.36-.77-2.43-1.59-4.78-2.41-7.02-.34-.92.14-1.95,1.06-2.29.92-.34,1.95.14,2.29,1.06.86,2.32,1.69,4.72,2.47,7.17.77,2.45,1.5,4.98,2.14,7.59.84,3.41,1.51,6.86,1.91,10.3.41,3.45.54,6.89.31,10.23l-.11,1.31-.12,1.27Z"/>
    </g>
  </g>
  <g>
    <path class="cls-15" d="M1294.72,722.3c0-12.91,10.47-23.39,23.38-23.39s23.38,10.47,23.38,23.39v468.67c0,12.91-10.46,23.38-23.38,23.38h-207.57c-12.91,0-23.38-10.47-23.38-23.38V405.92h-179.93v21.03c0,12.91-10.47,23.38-23.38,23.38s-23.38-10.47-23.38-23.38v-44.41c0-12.91,10.47-23.39,23.38-23.39h226.69c12.91,0,23.38,10.47,23.38,23.39v785.05h160.81v-445.29Z"/>
    <path class="cls-15" d="M850.7,434.73h60.32c4.33,0,7.88,3.55,7.88,7.89v13.77h-75.78v-14.07c0-4.17,3.41-7.58,7.58-7.58Z"/>
  </g>
  <g>
    <rect class="cls-30" x="1286.67" y="681.34" width="69.09" height="23.88"/>
    <path class="cls-26" d="M1355.13,668.05c4.17-1.94,6.91-5.52,6.91-10.93v-1.69c.81-46.75,41.9-59.85,45.22-111.56.24-3.88.21-7.67-.09-11.36-6.44-39.22-43.71-65.56-85.6-65.56-47.73,0-89.48,34.2-86.42,82.69,3.17,50.17,42.31,62.88,43.08,108.24,0,4.91,5.24,10.57,9.71,10.17h67.18Z"/>
    <path class="cls-16" d="M1353.8,662.71l-17.86,15.56-32.97-7.96-15.26-7.6-.22.02c-1.56-.05-3.9-3.36-3.92-4.94-.25-16.31-5.1-29.38-13.56-43.12-6.05-9.84-13.16-18.97-18.76-29.12-6.38-11.57-9.92-23.02-10.75-36.25-1.01-15.98,3.17-31.22,12.57-44.22,15.62-21.61,42.29-32.79,68.51-32.79,37.01,0,73.89,22.62,80.29,60.86.27,3.45.28,6.92.06,10.37-.89,13.82-4.68,25.7-11.46,37.71-5.96,10.55-13.51,20.04-19.89,30.31-8.63,13.9-13.59,27.25-13.89,43.89v1.69c0,2.57-.9,4.35-2.89,5.59Z"/>
    <path class="cls-20" d="M1330.58,669.16l-6.56,6.23-21.05-5.09-15.26-7.6-.22.02c-1.56-.05-3.9-3.36-3.92-4.94-.25-16.31-5.1-29.38-13.56-43.12-6.05-9.84-13.16-18.97-18.76-29.12-6.38-11.57-9.92-23.02-10.75-36.25-1.01-15.98,3.17-31.22,12.57-44.22,15.62-21.61,42.29-32.79,68.51-32.79,7.81,0,15.62,1.01,23.14,2.96,17.29,11.34,30.37,29.31,33.94,52.6.27,3.76.28,7.55.06,11.31-.89,15.07-4.68,28.03-11.46,41.13-5.97,11.51-13.5,21.85-19.89,33.05-8.63,15.17-13.59,29.72-13.88,47.88v1.84c0,2.8-.91,4.75-2.9,6.1Z"/>
    <path class="cls-26" d="M1284.17,710.72c.52,5.25,4.99,9.38,10.36,9.38h7.97l3.09,5.07c1.78,2.91,2.83,3.11,6.25,3.11h18.73c3.42,0,4.46-.18,6.24-3.11l3.1-5.07h7.98c5.29,0,9.71-4.02,10.32-9.18v-3.64c-.28-1.19-1.35-2.07-2.63-2.07h-68.76c-1.28,0-2.36.9-2.64,2.09-.02.11.05.33-.02.38v3.03h0ZM1354.63,686.8h-66.83c-2.02,0-3.67,1.65-3.67,3.67v5.69c0,2.02,1.65,3.67,3.67,3.67h66.83c2.01,0,3.67-1.65,3.67-3.67v-5.69c0-2.02-1.65-3.67-3.67-3.67h0ZM1354.48,668.05h-66.53c-2.09,0-3.82,1.73-3.82,3.82v5.93c0,2.09,1.73,3.81,3.82,3.81h66.53c2.09,0,3.81-1.72,3.81-3.81v-5.93c0-2.09-1.72-3.82-3.81-3.82Z"/>
    <path class="cls-7" d="M1331.77,668.06l7.07-85.58h10.25c4.42,0,8.44-1.81,11.36-4.72h0c2.93-2.93,4.73-6.95,4.73-11.36s-1.8-8.45-4.72-11.36-6.94-4.72-11.36-4.72-8.16,1.75-10.99,4.57c-2.87,2.87-4.7,6.85-5.09,11.2l-.8,9.17h-31.36l-.8-9.17c-.37-4.34-2.22-8.33-5.09-11.2-2.83-2.82-6.62-4.57-10.99-4.57s-8.43,1.81-11.35,4.73h0c-2.92,2.9-4.72,6.93-4.72,11.36s1.8,8.45,4.72,11.36c2.91,2.91,6.93,4.72,11.35,4.72h10.25l7.08,85.58h7.21l-7.05-85.58h30.1l-7.04,85.58h7.21ZM1339.47,575.26l.75-8.55c.23-2.65,1.31-5.04,2.99-6.72,1.52-1.52,3.56-2.45,5.88-2.45s4.65,1,6.25,2.6c1.61,1.61,2.61,3.82,2.61,6.26s-1,4.65-2.59,6.25h-.02c-1.6,1.61-3.82,2.61-6.25,2.61h-9.62ZM1293.61,575.26h-9.62c-2.43,0-4.64-1-6.25-2.61-1.6-1.6-2.61-3.82-2.61-6.25s1-4.65,2.61-6.26h0c1.59-1.61,3.81-2.6,6.25-2.6s4.36.94,5.88,2.46c1.68,1.69,2.77,4.08,3,6.71l.74,8.55Z"/>
    <path class="cls-7" d="M1290.11,497.01c2.29-.97,3.37-3.61,2.39-5.9-.96-2.3-3.61-3.37-5.9-2.41-1.87.79-3.65,1.65-5.31,2.53-1.72.93-3.41,1.94-5.04,3.02-2.09,1.37-2.65,4.18-1.27,6.26,1.38,2.07,4.17,2.64,6.25,1.27,1.4-.92,2.84-1.78,4.34-2.58,1.52-.82,3.04-1.55,4.54-2.19h0ZM1270.24,511.42c1.65-1.89,1.45-4.74-.43-6.38-1.89-1.64-4.75-1.44-6.38.44-4.77,5.48-8.59,11.81-11.2,18.73-2.51,6.67-3.87,13.87-3.87,21.34,0,2.5,2.02,4.52,4.52,4.52s4.52-2.03,4.52-4.52c0-6.4,1.16-12.52,3.28-18.17,2.2-5.87,5.48-11.26,9.57-15.97Z"/>
    <path class="cls-26" d="M1318.47,388.7h0c2.12,0,3.86,1.74,3.86,3.86v48.7c0,2.12-1.75,3.86-3.86,3.86h0c-2.12,0-3.86-1.74-3.86-3.86v-48.7c0-2.12,1.75-3.86,3.86-3.86h0ZM1174.98,641.82h0c1,1.88,3.34,2.61,5.22,1.61l43.08-22.7c1.88-1,2.61-3.34,1.61-5.22h0c-.99-1.88-3.33-2.6-5.21-1.61l-43.09,22.71c-1.88.99-2.6,3.33-1.61,5.21h0ZM1148.62,560.75h0c.14,2.12,1.99,3.74,4.11,3.6l48.6-3.19c2.12-.14,3.74-1.99,3.6-4.1h0c-.14-2.12-1.99-3.74-4.11-3.6l-48.59,3.19c-2.13.14-3.74,1.99-3.61,4.1h0ZM1164.42,478.54h0c-.74,1.99.29,4.23,2.28,4.96l45.69,16.88c1.99.74,4.22-.29,4.95-2.28h0c.74-1.99-.28-4.23-2.28-4.96l-45.69-16.88c-1.99-.74-4.22.29-4.95,2.28h0ZM1224.16,413.06h0c-1.7,1.27-2.06,3.7-.8,5.4l29.08,39.08c1.27,1.7,3.7,2.06,5.4.79h0c1.7-1.27,2.06-3.7.79-5.4l-29.07-39.07c-1.26-1.7-3.7-2.06-5.4-.79h0ZM1461.96,641.82h0c-1,1.88-3.34,2.61-5.22,1.61l-43.08-22.7c-1.88-1-2.61-3.34-1.61-5.22h0c.99-1.88,3.33-2.6,5.22-1.61l43.08,22.71c1.88.99,2.59,3.33,1.61,5.21h0ZM1488.32,560.75h0c-.14,2.12-1.99,3.74-4.11,3.6l-48.6-3.19c-2.12-.14-3.74-1.99-3.6-4.1h0c.14-2.12,1.99-3.74,4.1-3.6l48.6,3.19c2.12.14,3.73,1.99,3.6,4.1h0ZM1472.52,478.54h0c.73,1.99-.28,4.23-2.28,4.96l-45.69,16.88c-1.99.74-4.22-.29-4.95-2.28h0c-.74-1.99.29-4.23,2.28-4.96l45.69-16.88c1.99-.74,4.22.29,4.95,2.28h0ZM1412.78,413.06h0c1.7,1.27,2.06,3.7.8,5.4l-29.08,39.08c-1.27,1.7-3.7,2.06-5.39.79h0c-1.7-1.27-2.06-3.7-.79-5.4l29.07-39.07c1.26-1.7,3.7-2.06,5.4-.79Z"/>
  </g>
  <g>
    <path class="cls-15" d="M881.02,470.05c35.59,104.19,139.87,245.18,133.1,342.43-4.94,70.89-55.26,120.52-133.1,121.63-77.84-1.11-128.16-50.73-133.1-121.63-6.77-97.25,97.51-238.24,133.1-342.43Z"/>
    <g class="cls-31">
      <path class="cls-26" d="M881.02,470.05c4.43,12.98,9.93,26.53,16.15,40.49,1.9,139.67-154.11,331.56.5,384.06,41.33,14.04,72.34,3.03,94.91-16.02-22.5,33.86-61.29,54.81-111.57,55.53-77.84-1.11-128.16-50.73-133.1-121.63-6.77-97.25,97.51-238.24,133.1-342.43Z"/>
    </g>
    <path class="cls-7" d="M807.34,898.16c-2.01-1.41-2.49-4.21-1.07-6.22,1.42-2.01,4.2-2.49,6.22-1.06,9.15,6.47,19.61,11.49,31.14,14.96,11.51,3.46,24.05,5.34,37.38,5.57,24.65-.4,46.5-6.49,64.12-17.59,17.34-10.93,30.62-26.76,38.49-46.87.9-2.3,3.5-3.43,5.8-2.54,2.3.9,3.44,3.49,2.54,5.79-8.59,21.94-23.12,39.23-42.07,51.17-19.02,11.98-42.47,18.54-68.81,18.96h-.14c-14.24-.22-27.62-2.23-39.87-5.92-12.42-3.72-23.74-9.17-33.74-16.25h0ZM999.8,817.99c-.27,2.45-2.49,4.23-4.94,3.96-2.46-.27-4.24-2.49-3.96-4.94l.32-3.03.23-3.07c.55-7.78.22-15.86-.73-24.03-.96-8.23-2.58-16.52-4.58-24.68-1.51-6.17-3.3-12.37-5.23-18.46-1.93-6.08-3.98-11.98-6.05-17.58-.85-2.33.35-4.89,2.66-5.75,2.33-.85,4.9.35,5.75,2.66,2.14,5.82,4.24,11.85,6.18,17.98,1.94,6.13,3.77,12.5,5.37,19.02,2.11,8.54,3.79,17.21,4.79,25.8,1.01,8.66,1.35,17.28.77,25.65l-.27,3.27-.32,3.2Z"/>
  </g>
  <g>
    <path class="cls-23" d="M1522.91,815.75s-9.92,3.61-14.16,19.92c-4.24,16.31-14.84,80.04-5.43,80.04s19.96-23.57,19.96-23.57l-.37-76.39Z"/>
    <polygon class="cls-18" points="1402.93 892.14 1366.68 958.66 1372.29 964.44 1413.74 925.57 1402.93 892.14"/>
    <path class="cls-24" d="M1399.59,963s2.5,31.23,5.44,68.76c4,51,19.21,178.06,19.21,178.06,0,0-3.22,5.08,12.44,1.78,0,0,19.19-43.29,23.18-93.07.07-.81.12-1.63.18-2.46,3.71-50.68,9.48-157.4,9.48-157.4l-69.94,4.34Z"/>
    <path class="cls-1" d="M1398.74,952.19s3.36,42.03,6.3,79.56l54.83,86.76c.07-.81.12-1.63.18-2.46,3.71-50.68,9.48-157.4,9.48-157.4l-70.8-6.47Z"/>
    <path class="cls-24" d="M1420.46,947.42l77.48,255.97s11.09,6.86,13.24,2.47c0,0,8.29-109.7-8.12-137.11-9.27-15.48-8.37-52.86-8.54-67.7-.49-41.68-8.77-61.52-8.77-61.52l-65.29,7.9Z"/>
    <path class="cls-9" d="M1471.64,1236.35s18.37,2.69,24.38-1.81c.71-.53,3.56-6.43,3.58-6.49.22-.48,1.46-2.62,5.43-3.38,2.6-.52,4.69-.2,7.21-.83,1.86-.47,5.51-1.68,7.28-2.43,6.14-2.57,5.07-4.5,5.07-4.5,0,0-1.1-1.3-2.53-3.18-.38-.51-.81-1.07-1.2-1.65-2.13-2.94-4.44-6.62-4.83-9.08-.32-2.09-1.29-3.56-2.24-4.53-1.21-1.24-2.43-1.72-2.43-1.72,0,0-3.08,7.81-6.91,6.28-7.43-2.97-8.91-2.93-9.18-2.84l-.07.03s-7.9,11.35-10.22,15.47c-4.14,7.34-8.52,9.73-11.37,11.94-.71.57-1.27,1.21-1.69,1.9-1.7,2.77-1.17,6.14-.25,6.82Z"/>
    <path class="cls-9" d="M1438.94,1232.03h-7.68c-2.57-.42-4.47-1.16-7.11-1.5-4-.53-5.85,1.11-6.21,1.5l-.07.07h-32.59c-.82-1.16-.03-3.87.74-5.87.52-1.36,1.65-2.39,3.05-2.8,3.46-1,10.26-1.89,16.51-7.54,3.51-3.17,16.95-11.67,16.95-11.67l.07-.02c.3,0,1.7.44,7.81,5.6,3.17,2.66,8.56-3.76,8.56-3.76,0,0,1.01.83,1.76,2.39.61,1.23,1.05,2.92.7,5-.48,2.93,1.08,8.39,2.33,12.08.76,2.24,1.4,3.82,1.4,3.82,0,0,.37,1.84-6.23,2.68Z"/>
    <path class="cls-18" d="M1468.89,782.56s-30.55,15.03-48.19,9.46c0,0,4.35-5.54,11.93-9.71-.44-2.58-.79-4.92-1.06-7.01-.99-7.56-1.01-11.88-1.01-11.88l18.71-15.08,4.21-3.39c-.12,3.59.1,6.9.57,9.96.03.24.08.48.11.72,3.04,18.16,14.74,26.93,14.74,26.93Z"/>
    <path class="cls-17" d="M1488.84,944.16c.09,1.94-6.13,3.96-7.87,4.75-7.72,3.46-15.43,4.72-23.03,6.74-5.31,1.41-10.7,2.42-16.37,2.97-16.35,1.68-35.68-2-42.32-1.91-.7,0-1.31-.27-1.85-.71-.45-.36-.8-20.33-.45-45.52,0-.97,0-2.04.08-3v-.36c.09-9.81.45-20.15.9-30.41.96-22.62,2.73-44.46,5.75-56.58,3.52-14.23,11.65-23.59,19.08-30.48l5.28-5.25c.33-.33.81-.46,1.25-.39,5.91,1.09,12.37,1.01,18.57-2.05,6.98-3.44,14.58-7.16,15.81-6.27,14.5,10.83,21.71,42.82,21.58,79.21,0,1.15-.02,2.3-.04,3.46-.06,3.76-.2,7.56-.42,11.38-1.58,26.84,1.77,47.54,2.69,61.07.27,3.89,1.27,11.24,1.33,13.37Z"/>
    <path class="cls-23" d="M1465.23,906s40.35,13.26,46.5,8.78c6.15-4.47,5.5-20.82,5.5-20.82l-49.9,2.75-2.1,9.28Z"/>
    <path class="cls-23" d="M1481.96,888.71s-14.48,2.25-18.4,7.6c-3.92,5.36,12.95,1,15.04-.33,2.09-1.33,3.36-7.27,3.36-7.27Z"/>
    <path class="cls-18" d="M1482.96,799.95s34.92,84.4,32.4,97.9c-2.53,13.5-66.96,29.19-66.96,29.19l-1.15-9.58,38.72-32.07s-36.86-54.38-32.08-64.88c4.78-10.5,26.87-25.92,29.06-20.55Z"/>
    <path class="cls-13" d="M1453.88,832.08c11.82.58,23.19-2.09,35.29-13.89,1.98-1.93,4.43-3.16,3.32-5.68-3.97-9.06-15.16-28.02-28.8-36.82-1.28-.82-2.24-.11-3.57.64-5.04,2.83-15.87,11.17-16.54,21.02-.59,8.75,2.41,23.94,4.23,32.12.6,2.71,3.29,2.49,6.07,2.63Z"/>
    <path class="cls-18" d="M1366.68,958.66s-10.69,9.11-11.17,15.17c-.25,3.24-1.69,15.46.77,14.89,2.46-.57,4.94-10.06,8.34-11,3.41-.95,7.68-13.28,7.68-13.28l-5.62-5.78Z"/>
    <path class="cls-18" d="M1372.29,964.44s-2.28,11.29-4.17,14.89c-1.89,3.61-3.13,4.36-3.66,3.66-.52-.71,1-11.82,1-11.82l6.83-6.73Z"/>
    <path class="cls-18" d="M1447.26,917.45s-14.19,2.24-16.27,5.09c-2.09,2.84,1.71,10.63,5.69,11.38,3.99.76,11.73-6.88,11.73-6.88l-1.15-9.58Z"/>
    <path class="cls-24" d="M1567.63,1147.27c-.02.11-.03.2-.03.3-.03.19-.05.37-.06.52-1.28,12.23-3.96,24.62-7.15,36.13-8.33,30.04-20.31,52.94-20.31,52.94l-9.94-.91s5.43-23.12,5.9-54.52c.32-21.96-1.78-47.95-9.86-72.92-4.73-14.62-8.48-28.51-11.42-41.56-9.64-42.53-10.88-75.66-10.65-92.91.12-8.51.59-13.16.59-13.16l55.86,7.89,2.61.37c-.38,25.75-.54,60.7-.62,88.02-.02,6.6-.03,12.75-.04,18.22,0,7.58-.02,13.86-.02,18.2v6.6c3.18,7.31,4.92,15.51,5.58,24.17.55,7.3.32,14.93-.46,22.64Z"/>
    <path class="cls-18" d="M1546.18,1226.6c.25-1.3.6-2.96.98-4.77,4.03-9.47,9.07-22.65,13.22-37.6-14.07,1.16-21.01-.73-24.35-2.51-.17,12.18-1.11,23.12-2.17,31.95-1.48,5.5-4.17,14.29-7.26,17.97-4.92,5.87-8.36,12.07-14.89,15.39-.73.37-1.46.74-2.19,1.1-5.83,2.88-11.29,5.43-10.44,6.83.96,1.58,5.97,4.6,17.86,1.76,11.91-2.83,9.15-4.49,17.9-5.4,8.74-.91,16.25-2.65,15.44-8.06-.27-1.91-1.04-3.68-1.8-5.42-1.4-3.17-3.02-7.37-2.29-11.24Z"/>
    <path class="cls-1" d="M1567.63,1147.27c.89-10.25-16.6-45.62-16.6-45.62l11.48-7.79v6.6c3.18,7.31,4.92,15.51,5.58,24.17.55,7.3.32,14.93-.46,22.64Z"/>
    <path class="cls-9" d="M1534.84,1251.31c-8.75.91-5.99,2.58-17.9,5.4-11.89,2.84-16.9-.18-17.86-1.76-.85-1.4,4.61-3.96,10.44-6.83l.1.1s8.6,2.41,18.21-.78c7.84-2.59,15.27-7.76,20.65-9.61.76,1.74,1.53,3.51,1.8,5.42.81,5.41-6.7,7.15-15.44,8.06Z"/>
    <path class="cls-1" d="M1563.18,969.43c-.38,25.75-.54,60.7-.62,88.02-.02,6.6-11.53,38.73-11.53,44.2-9.31-13.25-17.35-104.91-30.24-128.1.12-8.51-16.08-12.37-16.08-12.37l55.86,7.89,2.61.37Z"/>
    <path class="cls-9" d="M1572.01,729.35c.33-1.15,4.54-14.21,24.91-9.88,0,0-10.2-1.28-13,2.64,0,0,8.09-3.7,13.15-.6,5.06,3.09,5.88,13.52,5.14,16.7-.76,3.17-6.35,12.61-10.05,12.61-1.41,0-2.9-.46-4.23-1.05.58,1.68,1.08,3.5,1.51,5.5,3.92,18.5-8.38,32.56-14.73,29.09-4.08-2.23-7.16,4.91-7.16,4.91l-36.96-41.65c-.1,0,.62-8.26,5.07-12.26,8.14-7.3,26.73-14.6,36.35-6.02Z"/>
    <path class="cls-18" d="M1518.83,947.44c15.37-49.1-1.47-59.78.12-84.35,1.6-24.57,20.63-50.99,20.63-50.99,0,0,.96-.1,2.61-.25,1.28-.67,1.61-6.01,1.6-11.65-.02-6.76-.54-13.95-.54-13.95l22.82-4.51,1.36-.27c-.07,15.89,4.12,26.31,7.15,28.74,2.85.33,15.01,1.86,22.5,4.99,2.82,1.18,4.98,2.59,5.73,4.24,6.27,13.78,12.52,48.55,16.92,73.35,2.44,13.83,4.32,24.55,5.3,26.83,2.71,6.35,11.03,41.24,18.12,58.47l-9.07,2.72s-29.92-49.64-32.63-62.55c-.89-4.2-3.07-12.62-5.59-22.04-.39-1.43-.78-2.88-1.18-4.34-4.49,12.15-6.77,17.78-6.65,23.03.18,7.47,5.24,14.19,15.84,37.95,5.85,13.12-100.72,44.74-85.04-5.4Z"/>
    <path class="cls-4" d="M1543.25,789.88s.52,7.18.54,13.94c12.76-.37,19.51-12.01,22.28-18.47l-22.82,4.52Z"/>
    <path class="cls-9" d="M1568.43,782.87s6.68-10.57,8.29-19.6c1.15-6.46-2.14-30.38-26.18-26.94,0,0-6.98.7-13.55,5.13-5.22,3.52-12.75,11.14-4.33,32l2.19,7.06,33.57,2.36Z"/>
    <path class="cls-18" d="M1539,796.27s30.21.5,30.22-18.32c.02-18.81,3.93-31.42-15.35-32.54-19.28-1.11-23.04,6.06-24.58,12.34-1.54,6.28,1.84,37.89,9.71,38.51Z"/>
    <path class="cls-24" d="M1554.11,1109.64c1.92,3.6,20.92,26.45,40.02,51.76,1.63,2.16,3.32,4.5,5.07,6.95,11.24,15.85,24.2,36.51,31.95,46.57,7.03,9.14,13.35-2.31,9.81-10.48-5.6-12.89-10.35-35.42-15.77-52-1.25-3.84-2.54-7.35-3.88-10.35-5.84-13.06-17.21-27.37-31.06-41.53-2.39-2.46,20.07-61.1,18.57-106.32-.59-17.92-3.08-33.67-8.8-43.28l-56.83,2.81s-7.78,120.79,10.92,155.88Z"/>
    <path class="cls-18" d="M1642.41,976.46s2.75,6.48,5.63,8.29c2.87,1.82,6.95,6.2,6.19,9.67-.75,3.47-1.51,8.92-5.14,8.92s-12.08-16.01-13.15-19.04c-1.06-3.02-1.96-3.62-1.96-3.62l8.43-4.22Z"/>
    <path class="cls-17" d="M1610.99,973.33c.09,1.95,0,3.52-.36,4.64-1.21,3.89-5.35,5.65-15.41,4.6-6.12-.65-8.86-11.15-10.08-20.11-3.68,12.82-8.85,20.02-15.51,21.52-9.74,2.21-62.33,5.92-65.54-17.91-3.54-26.21,10.55-70.25,11.12-95.29-1.44-8.87-1.93-16.57-1.78-23.19.41-17.83,5.53-27.82,9.47-31.84,1.11-.88,2.24-1.42,6.71-2.21,2.29-.39,5.46-.86,9.96-1.46,0,0,1.93-.25,1.89-.18-.82,1.51-9.76,14.96-8.9,19.38.91,4.62,35.27,3.96,38,1.41,2.71-2.54,9.81-21.74,9.81-21.74,0,0,13.96,1.55,20.8,6.63,0,0-.03.03-.08.08.83.62,1.45,1.25,1.79,1.94,7.29,14.17,14.58,49.94,19.69,75.44-12.41,6.99-23.24,4.91-26.61,3.98,4.4,29.38,14.37,60.92,15.02,74.31Z"/>
    <path class="cls-18" d="M1599.2,1168.34c11.24,15.85,24.2,36.51,31.95,46.57,7.03,9.14,13.35-2.31,9.81-10.48-5.6-12.89-10.35-35.42-15.77-52-3.64,5.54-11.09,12.7-25.98,15.91Z"/>
    <path class="cls-18" d="M1635.95,984.3s1,7.31,2.93,9.01c1.93,1.68,2.2,4.72,4.17,3.08,1.98-1.62-7.1-12.08-7.1-12.08Z"/>
    <path class="cls-18" d="M1654.83,1208.25c4.59,2.98.91,9.76-4.2,16.91-5.11,7.15-2.05,6.19-7.82,16.99-5.75,10.79-11.33,12.52-13.15,12.2-1.61-.28.1-6.08,1.79-12.33.22-.78.43-1.58.63-2.37,1.86-7.1-.53-13.8-1.65-21.36-1.07-7.16-11.43-21.37-11.43-21.37l7.41-14.99s9.09,13.06,13.21,18.34c2.41,3.11,6.62,4.69,9.94,5.73,1.8.58,3.63,1.19,5.25,2.24Z"/>
    <path class="cls-9" d="M1650.63,1225.16c-5.11,7.15-2.05,6.19-7.82,16.99-5.75,10.79-11.33,12.52-13.15,12.2-1.61-.28.1-6.08,1.79-12.33h.14s7.5-4.86,11.48-14.17c3.26-7.6,4.31-16.58,6.5-21.84,1.8.58,3.63,1.19,5.25,2.24,4.59,2.98.91,9.76-4.2,16.91Z"/>
    <path class="cls-23" d="M1462.28,898.79c-.81,2.88-1.06,6.15.89,11.92,1.94,5.78,3.48,6.13,5.47,2.34,1.98-3.8,2.98-7.57,5.39-11.97,1.33-2.45-.91-6.13-4.3-6.91-2.69-.61-6.4.81-7.45,4.62Z"/>
    <path class="cls-23" d="M1469.53,894.14s5.94,1.13,6.93,3.69c.99,2.56-.56,6.27-.71,8.39-.15,2.13-1.43,1.4-1.68.46-.25-.92-1.13-7.08-1.13-7.08l-3.42-5.47Z"/>
    <path class="cls-19" d="M1526.87,814.09s-9.1-.03-15.46,12.19c-6.36,12.23-10.34,31.86-10.34,31.86,0,0,6.25,17.07,19.35,14.23,13.09-2.85,6.45-58.28,6.45-58.28Z"/>
    <path class="cls-4" d="M1431.93,775.99c11.34-.71,22.55-21.08,22.55-21.08-1.41-.52-2.83-.84-4.25-.98-6.62,3.79-19.71,12.08-20.29,12.45h-.02s.81,3.42,2.01,9.62Z"/>
    <path class="cls-18" d="M1426.22,768.68s4.99.28,10.98-.65c8.76-1.35,19.63-5.3,20.09-16.52.78-18.88,5.22-31.38-14.09-33.27-10.34-1.01-16.3.53-19.89,3.16-3.11,2.26-4.44,5.33-5.27,8.24-1.79,6.23.32,38.11,8.19,39.04Z"/>
    <path class="cls-9" d="M1433.55,728.73c4.85.63,7.75,7.6,8.5,9.86.76,2.26,1.63,4.11,7.05,1.01.89-.52,1.6-.65,2.15-.5,2.83.71,1.8,8.57,1.32,10.35,0,0,.13,5.38,3.82,6.92.45.17,7.05,1,14.74-24.71,1.2-4.03.95-12.66-4.64-18.98-.29-21.11-59.98-11.31-63.46,4.17-6.27,28.06,35.69,8.48,30.51,11.88Z"/>
    <path class="cls-9" d="M1418.11,721.91c-4.81,3.27-6.23,6.66-4.26,10.2,7.84,3.07,15.12,2.86,21.84-.64-4.21,0-10.05-3.19-17.58-9.56Z"/>
    <path class="cls-9" d="M1465.59,717.47c-1.94-2.12-2.23-3.91-.88-5.38,4.12-.57,7.6.37,10.42,2.82-2.03-.48-5.2.37-9.54,2.57Z"/>
    <path class="cls-9" d="M1459.34,718.44c1.75,3.47,3.9,4.7,6.41,3.7,2.7-4.94,3.17-9.8,1.43-14.55-.36,2.79-2.97,6.41-7.84,10.85Z"/>
    <g>
      <path class="cls-3" d="M1425.6,739.1c-1.6-.75-3.01-1.56-4.69-2.29-2.44-1.05-3.15.92-4.89,1.07.38-.25.32-.39.76-.85,2.35-2.44,4.33-1.84,6.98-.4,1.47.8,1.75.38,1.84,2.46Z"/>
      <g>
        <path class="cls-7" d="M1421.16,738.43c-.85-.02-1.55.8-1.55,1.8,0,1.01.67,1.83,1.53,1.84.86.02,1.55-.8,1.55-1.8.02-1-.67-1.83-1.53-1.84Z"/>
        <path class="cls-3" d="M1421.13,742.08c-.86,0-1.54-.83-1.54-1.84.02-1.01.71-1.82,1.56-1.8.37,0,.69.15.95.39l-.12-.02c-.27,0-.5.26-.51.58,0,.32.22.59.49.6.28,0,.52-.26.52-.58v-.07c.13.28.21.6.2.94,0,1.01-.7,1.82-1.55,1.8Z"/>
      </g>
      <path class="cls-3" d="M1432.24,739.17c1.61-.71,3.03-1.5,4.72-2.18,2.46-.99,3.13,1,4.87,1.19-.38-.27-.32-.4-.75-.86-2.3-2.49-4.29-1.94-6.96-.56-1.5.76-1.76.34-1.88,2.42Z"/>
      <g>
        <path class="cls-7" d="M1436.68,738.62c.86,0,1.55.83,1.53,1.83,0,1.01-.7,1.82-1.55,1.81-.86-.02-1.54-.83-1.53-1.84,0-1.01.71-1.81,1.55-1.79Z"/>
        <path class="cls-3" d="M1436.66,742.26c.86,0,1.55-.8,1.56-1.81,0-1-.67-1.83-1.54-1.84-.35,0-.68.14-.95.37l.12-.02c.28,0,.5.27.5.6s-.23.58-.51.58-.5-.27-.49-.6v-.07c-.14.27-.22.6-.23.93,0,1.01.68,1.83,1.54,1.84Z"/>
      </g>
      <path class="cls-33" d="M1427.74,751.27c-.65,0-1.25-.31-1.8-.91-.32-.5-.4-1.8,1.53-7.79.05-.17.23-.25.39-.21.17.06.26.22.21.39-1.88,5.87-1.76,7.01-1.63,7.24.43.47.91.69,1.45.64.21,0,.32.12.34.28.02.17-.11.33-.28.35-.08,0-.14,0-.21,0Z"/>
      <path class="cls-7" d="M1423.54,757.23c.69,3.13,7.01,2.88,11.7-.78-4.99.73-8.96.81-11.7.78Z"/>
    </g>
    <g>
      <path class="cls-3" d="M1535.44,768.87c-.68.03-1.26-.68-1.3-1.6-.04-.9.48-1.66,1.16-1.7.68-.03,1.27.68,1.3,1.6.04.91-.48,1.66-1.16,1.7Z"/>
      <g>
        <path class="cls-3" d="M1545.51,766.3c6.35-1.54,5.52-1.34,10.42,1.66-1.66-3.18-4.64-4.3-7.97-3.67-1.56.29-1.84.22-2.45,2.01Z"/>
        <path class="cls-3" d="M1549.15,769.57c.66.05,1.27-.63,1.35-1.53.08-.91-.39-1.69-1.06-1.75-.67-.07-1.27.62-1.35,1.52-.08.91.39,1.69,1.06,1.75Z"/>
        <path class="cls-3" d="M1539.48,766.04c-5.68-2.66-4.94-2.31-10.07-.23,2.13-2.83,5.12-3.39,8.14-2.19,1.4.56,1.67.54,1.94,2.42Z"/>
        <path class="cls-33" d="M1543.79,779.55h-.04l-1.45-.13c-.85-.08-1.59-.19-1.99-.69-.37-.46-.38-1.1-.27-1.91.07-.57.26-1.18.51-1.94.37-1.2.83-2.68,1.1-4.8.03-.27.28-.46.53-.42.27.03.45.27.41.53-.27,2.21-.77,3.81-1.13,4.97-.23.72-.42,1.3-.47,1.78-.08.65-.06,1.03.07,1.2.15.18.65.27,1.33.33l1.45.13c.27.03.46.27.43.52-.02.25-.23.43-.47.43Z"/>
        <path class="cls-7" d="M1548.54,784.64c-6.33-.13-11.19-.89-9.62.44,1.67,1.59,6.02,1.5,9.62-.44Z"/>
        <path class="cls-12" d="M1535.52,765.6c.12,0,.2.29.17.64-.03.33-.16.6-.28.59-.12,0-.2-.29-.17-.64.03-.33.16-.6.28-.59Z"/>
      </g>
      <path class="cls-12" d="M1549,766.47c.12.02.2.3.17.63-.03.35-.16.62-.28.6-.12,0-.2-.29-.17-.63s.16-.61.28-.6Z"/>
    </g>
    <path class="cls-9" d="M1530.19,747.3c4.67-5.65,8.19-4.42,10.17-2.73,16.2-8.98,27.16,4.35,27.16,4.35,2.03,13.5,11.76,21.23,11.76,21.23,0,0-5.51,3.4-18.2.13-3.88-1-7.34-3.74-10.28-7.08,5.14,8.61,12.12,14.81,12.12,14.81-15.17-7.01-23.81-26.94-24.42-29.17-1.84,1.65-2.92,4.09-4.03,7.61-1.5,4.79-5.49,15.86-8.36,15.52,0,0-2.92-16.21,4.07-24.69Z"/>
  </g>
  <g>
    <g>
      <path class="cls-18" d="M505.8,1223.76c.34-3.01-.76-7.06-.34-11.93,3.3-37.98,10.44-123.74,10.44-123.74,0,0,8.07-67.93,8.7-110.93-8.7-.77-17.22-2.27-25.63-4.39-18.3-4.66-30.58-12.14-48.02-20.59-9.52,35.09-27.16,99.49-27.16,99.49,0,0,.04,13.72-18.22,13.72-16.02,0-82.59,55.71-95.76,64,1.7,4.02,6.01,8,7.96,11.98,21.16-17.3,130.14-57.09,130.14-57.09l29.57-74.97s8.88,91.9,1.72,99.08c-7.17,7.15,12.71,110.13,12.71,115.36,0,.65,8.38-.12,13.9,0Z"/>
      <path class="cls-1" d="M475.29,989.78s6.37,101.59,3.18,107.56c-3.18,5.97-5.57,15.92-3.18,41.02,2.38,25.1,9.55,68.95,9.55,68.95l23.51.77,9.56-119.92,8.18-111.17.2-2.36-31.87-23.92-19.12,39.07Z"/>
      <path class="cls-24" d="M323.89,1113.26l10.36,18.72s93.85-30.91,113.55-45.4c7.57-5.57,39.05-81.66,39.05-81.66l24.83-29.49.26-16.37-53.32-23.43s-19.37,21.81-23.16,30.62c-9.49,21.96-15.93,94.4-15.93,94.4,0,0,.79-2.8-17.13,1.99-17.93,4.79-78.49,50.59-78.49,50.59Z"/>
      <path class="cls-9" d="M327.62,1135.6s-6.27-4.06-7.02-6.38c-.74-2.35,1.04-8.19-1.56-9.54-2.59-1.38-19.17,4.11-21.64,5.97-3.05,2.32-4.24,5.93-3.49,8.33.76,2.36,22.82,42.32,27.49,47.38,4.66,5.09,10.46-6.12,7-13.11-3.45-6.98.56-21.68-.79-32.64Z"/>
      <path class="cls-9" d="M506.86,1212.84s-6.62,3.41-9.01,2.92c-2.39-.53-6.62-4.96-9.06-3.37-2.45,1.58-5.89,18.71-5.5,21.76.49,3.81,3.06,6.62,5.51,7.15,2.43.52,48.07,1.1,54.79-.45,6.72-1.54-.17-12.14-7.94-12.59-7.77-.45-18.57-11.2-28.79-15.42Z"/>
      <path class="cls-26" d="M639.93,889.12c-32.56,32.64-49.77,51.99-78.62,61.7-6.25-5.54-10.42-13.46-12.49-23.77-7.14,16.06-14.63,31.91-22.5,47.53-16.3,5.29-40.27,3.8-71.89-4.51l-3.77-14.64c-2.31-1.66-9.36-1.5-14.08,1.5-15.02-28.25-21.91-54.38-22.46-77.44,21.06-39.34,41.23-68.76,60.48-88.25,7.34-4.65,20.44-6.51,39.3-5.6,21.16,23.38,34.02,29.71,38.56,18.98,6.58,6.1,14.8,15.32,24.64,27.66,6.96,13.01,5.95,39.17-2.99,78.49,18.91-12.36,38.2-24.09,59.56-32.55,2.54,2.18,4.97,5.9,6.26,10.92h0ZM450.37,942c19.23-21.69,29.28-54.73,30.13-99.12-12.44,16.39-25.07,32.33-37.9,47.84,4.28,5.12,6.87,22.21,7.77,51.28Z"/>
      <path class="cls-2" d="M548.81,927.05c10.27-24.48,17.41-45.15,21.43-61.98-7.23,36.33-9.66,61.54-7.25,75.62,4.69,1.98,11.31,1.42,20.85-.66-7.22,4.5-14.54,8.29-22.53,10.79-6.25-5.54-10.42-13.46-12.49-23.77Z"/>
      <path class="cls-2" d="M450.66,955.42c.19-4.16.1-8.63-.29-13.42,19.23-21.69,29.28-54.73,30.12-99.12,8.16,44.12-1.51,82.73-28.99,115.82l-.84-3.27Z"/>
      <path class="cls-2" d="M547.04,884.43c-17.01-7.98-38.06-15.19-63.96-19.99-.37-7.04-1.23-14.23-2.59-21.57,40.64,9.95,68.49,20.83,83.57,32.66l-17.02,8.9h0ZM477.08,912.93c3.22.81,6.57,1.75,10.03,2.83l-1.09.56-12.62,6.6c1.37-3.29,2.59-6.62,3.68-10h0ZM502.31,947.06l21.32-11.14c6.71,3.04,12.3,6.24,16.77,9.59-2.5,5.35-5.04,10.68-7.62,15.99-7.97-5.02-18.12-9.82-30.47-14.44h0ZM513.14,902.15l19.81-10.35c-15.06-5.88-31.65-10.41-49.78-13.54-.3,7.3-1.17,14.42-2.61,21.38,8.85,2.23,16.96,4.5,24.31,6.83l8.27-4.32h0ZM564.45,826.11c-15.49-10.35-34.8-18.28-57.91-23.79,4.62-3.35,9.76-6.08,15.42-8.22,15.31,15.21,25.19,19.27,29.63,12.17,5.41,6.59,9.7,13.2,12.86,19.84h0ZM495.55,812.16c-3.65,5.14-8.61,12.55-11.06,19.08,43.88,10.94,66.29,18.86,85.39,35.29,1.33-6.6,1.35-17.04.54-23.57-20.97-14.85-46.94-24.27-74.87-30.8Z"/>
      <path class="cls-2" d="M523.85,820.55c-6.12-11.64-9.65-22.38-10.6-32.2,2.84-3.05,6.77-5.83,9.12-6.27,7.22,13.18,12.02,20.76,17.19,25.97.03.03.06.07.09.1.15-.27.31-.52.47-.78,3.11-5.1,7.18-10.88,9.91-16.99,2.33,2.83,2.53,6.22,3.27,9.76.71,7.6-.62,16.06-3.96,25.37-1.18-3.17-2.44-6.03-3.79-8.59-1.82-3.47-3.79-6.4-5.9-8.77-2.78,1.31-5.61,3.13-8.47,5.45-2.41,1.96-4.85,4.28-7.33,6.96Z"/>
      <path class="cls-18" d="M522.46,782.16c2.08-1.51,4.08-3.74,6.02-6.68-.1-1.87-.1-4.2.01-6.99-8.88-10.78-8.77-16.79.34-18.04,1.35,1.39,2.55,4.78,3.58,10.18,1.94.49,1.48-5.04,3.02-6.65.03-8.6,2.63-10.5,3.39-15.65,7.84-6.51,22.17-4.96,38.45,2.18-2.77,16.02-7.88,54.22-26.47,47.92l-.69,2.02c-2.74,6.12-6.81,11.9-9.91,16.99l-.56.69c-5.16-5.21-9.97-12.79-17.19-25.97Z"/>
      <path class="cls-9" d="M576.06,741.54c-16.28-7.15-29.39-9.72-37.23-3.21-.75,5.15-2.96,7.83-2.99,16.42-1.54,1.59-1.48,6.37-3.42,5.88-1.03-5.4-2.23-8.79-3.58-10.18-9.11,1.25-9.23,7.26-.34,18.04-.11,2.78-.11,5.12-.01,6.99-16.25-16.54-17.29-46.29,3.76-54.43,9.7-21.81,36.8,7.91,56.52,1.79,3.91,10.99-7.53,19.99-12.71,18.7Z"/>
      <path class="cls-4" d="M538.41,783.39c2.87,1.7,8.78,4.19,12.4,5.04l-.69,2.03c-.53,1.19-1.11,2.35-1.73,3.51-.03-.02-.07-.05-.1-.07-5.03-3.43-8.33-6.94-9.88-10.51Z"/>
      <path class="cls-9" d="M528.31,728.4c2.23-1.87,2.89-3.84,1.99-5.92-3.62-1.84-6.99-1.76-10.1.23,1.94.03,4.65,1.93,8.11,5.68Z"/>
      <path class="cls-9" d="M534.2,722.34c-2.06,1.35-3.62,1.35-4.67,0,.08-3.56,1.35-6.37,3.81-8.42-.68,1.65-.39,4.45.86,8.42Z"/>
      <path class="cls-9" d="M564.45,737.11c1.46-4.89,4.18-7.32,8.14-7.3,5.47,4.55,7.69,10.03,6.64,16.41-1.4-3.1-6.33-6.13-14.79-9.11Z"/>
      <path class="cls-9" d="M557.78,716.7c.19,2.3-1.53,4.78,1.26,6.21-.47,9.57,9.94-.7,10.71-4.11-1.52.61-5.51-.09-11.97-2.09Z"/>
      <g>
        <path class="cls-11" d="M903.38,719.22c-27.82-53.23-93.52-73.83-146.75-46.01-48.04,25.11-69.49,81.08-52.77,130.88l-.74.39c-3.01,1.57-4.19,5.32-2.61,8.33l10.21,19.55c1.57,3.01,5.32,4.19,8.33,2.61l.74-.38c31.35,42.17,89.54,56.49,137.58,31.39,53.23-27.81,73.82-93.52,46.01-146.75h0ZM889.93,726.25c23.94,45.8,6.22,102.33-39.58,126.27-45.8,23.93-102.32,6.22-126.26-39.58-23.94-45.8-6.22-102.32,39.58-126.27,45.79-23.93,102.33-6.21,126.26,39.58Z"/>
        <rect class="cls-34" x="653.28" y="824.41" width="55.5" height="22.05" transform="translate(-309.57 410.62) rotate(-27.6)"/>
        <path class="cls-11" d="M684.56,846.04l-10.21-19.55c-1.58-3.01-5.33-4.19-8.34-2.61l-44.85,23.44-.07.04-96.86,50.63h-.02s-26.83,14.04-26.83,14.04l-96.89,50.63c-3.01,1.58-4.18,5.34-2.61,8.34l10.21,19.54c1.57,3.02,5.32,4.19,8.33,2.62l44.86-23.45.06-.03,96.88-50.64,26.83-14.02h0l96.88-50.64c3.01-1.56,4.19-5.32,2.61-8.33Z"/>
        <g class="cls-35">
          <path class="cls-7" d="M763.66,686.67c-45.8,23.94-63.52,80.47-39.58,126.27,23.94,45.8,80.46,63.52,126.26,39.58,45.8-23.93,63.52-80.47,39.58-126.27-23.94-45.79-80.47-63.51-126.26-39.58Z"/>
        </g>
        <g class="cls-35">
          <path class="cls-6" d="M764.3,852.88l136.28-82.55c.02-2.82-.07-5.61-.3-8.38l-143.25,86.78c2.35,1.48,4.78,2.88,7.28,4.15h0ZM728.74,820.87c-8.06-12.29-13.27-26.5-14.82-41.6l144.77-87.7c12.48,8.28,22.76,19.44,30.01,32.39l-159.96,96.91h0ZM751.19,844.71c-4.5-3.34-8.68-7.08-12.49-11.15l156.63-94.89c1.84,5.24,3.22,10.66,4.1,16.24l-148.24,89.8Z"/>
        </g>
      </g>
      <path class="cls-18" d="M438.14,968.41h0c-.29-6.46-1.38-12.07-3.28-16.82,3.01-4.72,9.32-7.85,12.12-7.33l7.47,9.06c8.09,4.54,14.24,8.81,18.45,12.83-4.92,1.31-8.74.75-11.45-1.71,2.78,4.84,3.99,7.86,3.66,9.09-10.57,8.39-17.79,11.45-21.65,9.16-3.82-6.18-5.59-10.94-5.31-14.28Z"/>
      <path class="cls-26" d="M415.82,897.81c2.91,18.27,9.59,38.09,20.75,59.1,3.6-2.44,12.48-8.25,15.21-6.81-1.68-3.91-1.03-3.32-1.42-8.11-.65-21.13-2.2-35.93-4.64-44.41-7.8.62-17.77.69-29.91.22Z"/>
      <path class="cls-18" d="M639.92,889.12c1.05-.99,5.06-5.04,9.19-8.93,5.95-.27,14.23-5.74,15.61-10.47.85-6.38,3.32-8.76-1.59-12.71-1.89-.16-6.13,2.27-10.38,7.25.25,4.5-4.54,5.93-7.6,7.54-3.91,2.63-1.14.61-5.58,3.5-1.97,1.64-4.71,2.59-5.73,3.52,2.56,2.34,4.73,5.24,6.07,10.3Z"/>
    </g>
    <g>
      <g>
        <path class="cls-10" d="M552.1,747.02c-1.38-.57-2.96.09-3.53,1.47-.57,1.38.09,2.96,1.47,3.52,1.38.57,2.96-.08,3.53-1.46.57-1.38-.09-2.96-1.47-3.53Z"/>
        <path class="cls-3" d="M550.05,752.02c-1.38-.57-2.04-2.15-1.48-3.53.57-1.39,2.15-2.04,3.53-1.48.58.24,1.03.66,1.32,1.16l-.18-.1c-.45-.18-.96.02-1.14.47-.19.45.03.96.47,1.15.45.18.96-.03,1.15-.47l.03-.1c.07.47.02.96-.17,1.43-.57,1.38-2.15,2.04-3.53,1.47Z"/>
      </g>
      <path class="cls-3" d="M555.46,746.15c.04.07.07.12.11.19,0-.26-.18-.66-.23-.88.08.12.15.18.21.37.06.16.08.32.1.5.07-.17.04-.31.07-.47.05.14.04.4,0,.55.15-.53.12-.5.07-1.05.17.21.19.73.15,1,.09-.09.13-.24.18-.39.03.21,0,.29-.05.47l.2-.16c-.06.12-.11.14-.15.23.32-.12.97-.65,1.03-1.01-.09.13-.27.37-.38.43.1-.23.27-.48.32-.78-.13.16-.18.42-.29.6-.11.18-.26.38-.39.48.2-.4.43-.7.44-1.2l-.05.1c-.07.22-.13.47-.24.67.06-.42.21-.76-.03-1.16.02.19.07.31.07.52-.12-.23-.09-.58-.37-.71.08.18.17.32.24.56.05.2.12.53,0,.71.02-.77-.27-1.26-.71-1.55.11.12.43.53.42.71v.03c-.1.18.01-.18-.03.04.07.1.13.29.16.42.02.08.02.19.02.28,0,.05,0,.13-.01.17,0,.05,0,.04-.02.08l-.02.04c0-.51-.08-.83-.32-1.19-.15-.22-.53-.65-.78-.76,0,0,0,0,.01.02l.19.17c.45.45.88.93.84,1.66-.02-.03,0,0-.03-.07t-.01-.05c-.06-.23-.12-.48-.22-.7-.12-.23-.28-.46-.43-.63-.2-.21-.89-.74-1.3-.81.12.03.79.47.9.56.24.19.54.46.66.79-.11-.07-.2-.18-.29-.26-.59-.52-1.64-1.33-2.36-1.5.41.22.98.61,1.25.9l-.25-.14c.06.06.11.12.18.18.06.07.12.11.18.17.3.32.76.86.84,1.32-.07-.12-.17-.26-.25-.38-.09-.14-.17-.26-.27-.38-.19-.23-.39-.5-.61-.7-.47-.42-.93-.8-1.5-1.11.07.05.15.12.19.22-.49-.17-1.18-.81-2.42-1.25.24.17.68.34.95.52l.25.19c-.16-.05-.66-.35-.86-.45-1.01-.53-1.64-.86-2.8-1.2-.74-.22-1.44-.42-2.28-.33-.54.06-1.07.17-1.56.38-.17.07-.27.13-.42.21.34-.06,1.2-.52,1.9-.46-1.19.29-2.15.58-3.09,1.16.23-.07.57-.24.83-.34.3-.12.59-.21.89-.3.54-.17,1.39-.36,2-.33-.17.07-.57.13-.78.18-1.47.34-2.91.8-4.28,1.4-.16.07-.51.27-.62.31.13-.02.7-.25.89-.31.98-.32,1.89-.6,2.97-.59-.32.13-2.33.32-3.05.67l1.77-.32c.54-.08,1.43-.18,1.97-.1-.62-.06-3.22.3-3.79.55.27,0,.68-.1.97-.13.35-.05.69-.08,1.04-.1.71-.05,1.45-.04,2.16.07.95.15,1.82.42,2.68.77.25.1.57.27.81.34-.12-.13-.55-.3-.7-.37-.49-.23-1-.42-1.52-.58-.21-.07-.65-.15-.81-.22.67.03,1.14.23,1.69.32-.05-.02-.02,0-.07-.03-.05-.03-.02-.02-.05-.05.34.07.94.38,1.22.54.34.19.98.69,1.01.71-.07-.09-.14-.16-.19-.25l.82.47-.96-.72c.21.09.46.29.66.41.24.13.73.42.94.58.25.2.75.42,1.04.51-.08-.09-.41-.3-.54-.4l-.52-.38c-.1-.07-.18-.12-.26-.2-.23-.22-.48-.41-.73-.61-.45-.36-1.8-1.24-2.39-1.24.76-.02,2.07.85,2.51,1.2l1.03.83c.1.07.16.14.25.22.25.2.51.42.78.58v-.07h0s0-.02,0-.02c0,0,0,0,0,0,.08.09.35.3.49.36-.2-.35-.84-.78-.99-1.2.22.16.45.45.62.66.07.08.14.13.2.21-.09-.39-.39-.79-.63-1.11l-.28-.32c.28.12.54.49.7.75.16.25.28.54.4.81t.02.07s.01.02.05.05l-.13-.53c.02.1.27.57.25.7.03-.25-.07-.48-.11-.7l.13.17c-.13-.53-.68-1.06-1-1.46.39.17.94.94,1.1,1.39.07.21.09.46.17.64l-.02-.4s.01.02.01.02l.12.28c-.01-.5-.17-.8-.35-1.16.11.06.18.17.25.28.06.11.12.23.16.36.08.26.14.54.17.84.05-.11.04-.33.03-.47.07.05.01,0,.07.07.1.12.13.32.17.47l.03-.29.1.33c.04-.27,0-.42,0-.65.12.15.13.36.15.57.05-.08.06-.22.06-.33l.15.28c.03.08.05.18.09.27.01-.26-.06-.42-.1-.62.18.21.2.45.29.73.03-.28-.04-.76-.15-.96.23.12.19.81.27.98l.08-.28s0,0,.03.05l.07.33.09-.37c.07.13.05.25.08.42,0-.02.09-.3.09-.48.05.03.01,0,.06.07.07.13.07.3.14.44l-.02-.32s.02.02.05.05l.1.15Z"/>
      <g>
        <path class="cls-10" d="M570.13,751.72c1.38.57,2.04,2.15,1.47,3.53-.57,1.38-2.15,2.04-3.53,1.47-1.38-.57-2.04-2.15-1.47-3.53.56-1.38,2.14-2.04,3.53-1.47Z"/>
        <path class="cls-3" d="M568.08,756.73c1.38.57,2.96-.09,3.53-1.47.57-1.38-.09-2.96-1.48-3.53-.58-.24-1.19-.26-1.75-.11l.2.06c.44.18.66.7.48,1.14-.19.45-.7.67-1.15.48-.44-.18-.66-.7-.48-1.15l.05-.08c-.38.28-.69.66-.88,1.13-.57,1.38.09,2.96,1.48,3.53Z"/>
      </g>
      <path class="cls-3" d="M565.51,749.47c-.07.03-.12.05-.18.1.13-.22.48-.45.64-.62-.13.06-.2.07-.35.19-.13.11-.22.22-.34.37.05-.18.14-.27.21-.44-.12.1-.25.32-.3.47.17-.52.18-.48.51-.92-.24.08-.54.52-.65.77-.01-.12.03-.27.08-.42-.14.15-.17.23-.22.41l-.06-.22c-.02.12,0,.17,0,.27-.17-.27-.37-1.05-.22-1.38,0,.16,0,.46.05.57.05-.26.06-.55.19-.82,0,.2-.09.43-.1.65-.02.22-.02.47.03.62.06-.44.06-.81.32-1.25l-.02.12c-.07.22-.15.45-.17.68.17-.37.25-.75.64-.95-.12.13-.21.22-.32.39.21-.13.37-.44.65-.4-.16.11-.3.17-.49.35-.15.14-.37.37-.37.6.39-.66.87-.92,1.35-.92-.14.03-.6.22-.69.38v.03c-.05.2.07-.17-.02.04-.1.04-.25.17-.34.27-.06.07-.12.15-.17.23-.02.03-.06.1-.08.13-.02.05-.01.04-.02.08v.04c.27-.44.5-.66.87-.83.23-.11.74-.27.98-.24,0,0-.02.02-.02.02l-.23.05c-.57.13-1.14.32-1.5.95.03-.02,0,.02.05-.04.02,0,.02-.02.04-.03.17-.17.34-.34.54-.46.21-.13.46-.25.66-.31.26-.07,1.06-.16,1.4,0-.1-.04-.84-.02-.96,0-.28.03-.65.1-.91.32.11,0,.25-.05.36-.07.71-.12,1.92-.27,2.54-.03-.42-.03-1.05,0-1.4.1l.26.02c-.07.02-.15.05-.23.07-.08,0-.15.02-.23.04-.4.12-1.02.32-1.33.67.11-.07.26-.12.39-.18.14-.08.26-.12.41-.18.26-.1.55-.22.83-.27.57-.12,1.11-.2,1.7-.17-.08.02-.17.02-.26.08.46.12,1.32-.07,2.46.21-.27.02-.68-.06-.98-.06l-.28.03c.15.05.67.05.88.07,1.02.08,1.66.12,2.71.45.66.2,1.28.39,1.85.9.37.33.7.7.95,1.13.1.15.13.25.2.4-.22-.23-.61-1.06-1.15-1.38.72.86,1.28,1.6,1.66,2.57-.13-.17-.29-.5-.43-.72-.16-.25-.32-.47-.49-.71-.31-.42-.83-1.02-1.3-1.32.09.15.35.42.47.57.89,1.05,1.72,2.17,2.41,3.38.08.14.22.49.29.57-.09-.07-.39-.56-.5-.71-.55-.76-1.07-1.48-1.87-2.03.17.27,1.55,1.47,1.89,2.14l-1.13-1.2c-.35-.33-.96-.89-1.4-1.1.49.27,2.21,1.92,2.5,2.43-.19-.14-.44-.43-.64-.62-.23-.22-.47-.42-.71-.62-.5-.41-1.05-.79-1.62-1.06-.78-.38-1.57-.6-2.39-.75-.24-.03-.57-.07-.79-.13.16-.05.56.03.71.06.48.06.96.16,1.43.29.19.06.55.22.71.24-.51-.32-.96-.39-1.42-.61.05.02.02.02.07,0,.05,0,.02,0,.07-.02-.29-.12-.89-.17-1.19-.17-.35-.02-1.09.07-1.13.07.1-.03.19-.05.27-.11l-.86-.02,1.1-.11c-.2-.03-.49,0-.7,0-.25,0-.77-.02-1.01,0-.28.03-.77-.04-1.04-.11.11-.04.46-.04.61-.06l.59-.04c.11-.02.2,0,.3-.04.29-.07.58-.09.87-.13.52-.07,1.99-.1,2.42.2-.55-.42-1.98-.36-2.49-.29l-1.21.17c-.1,0-.19.03-.3.04-.29.04-.59.08-.89.09l.04-.06s0,0,0,0c0,0,0,0,0,0,0,0,0,0,0-.02-.11.03-.42.08-.56.05.34-.19,1.05-.22,1.38-.49-.25,0-.57.14-.82.23-.09.02-.17.04-.25.07.28-.28.71-.47,1.06-.61l.37-.12c-.27-.05-.66.13-.91.27-.25.13-.49.31-.73.48-.03.02-.02.02-.05.03-.05.03-.02.02-.06.02l.38-.38c-.08.08-.52.35-.57.46.11-.22.31-.37.46-.53l-.19.07c.39-.39,1.07-.54,1.52-.71-.37-.06-1.2.3-1.55.6-.17.14-.32.34-.47.45l.22-.32s-.01,0-.02,0l-.25.17c.27-.41.55-.59.88-.8-.11,0-.22.05-.33.12-.1.05-.21.12-.31.21-.2.17-.39.37-.57.62.01-.11.14-.29.22-.41-.08,0,0-.02-.09.02-.14.05-.27.21-.37.3l.13-.25-.25.22c.11-.23.23-.35.35-.55-.17.07-.29.23-.42.41,0-.09.08-.22.15-.32l-.26.16c-.07.07-.15.13-.21.2.13-.23.27-.32.41-.48-.25.08-.39.28-.61.47.13-.26.44-.61.63-.74-.24-.03-.58.58-.73.68l.1-.28s-.01,0-.06.03l-.22.24.12-.35c-.12.07-.16.19-.27.31.01-.02.09-.3.2-.45-.05.02,0,0-.08.03-.13.08-.22.22-.34.29l.19-.26s-.02,0-.06.02l-.15.08Z"/>
      <path class="cls-33" d="M557.73,768.4c-.71,0-1.39-.23-1.88-.4-.26-.09-.65-.18-.74-.2-.22.05-.5-.13-.54-.37-.04-.24.1-.47.34-.53.34-.08.74.06,1.24.22,1.38.47,2.5.71,3.29-.86.37-.88.87-11.12.43-12.1-.1-.24,0-.52.23-.62.25-.11.51,0,.62.22.56,1.24.02,12.01-.44,12.93-.68,1.34-1.63,1.71-2.53,1.71Z"/>
      <path class="cls-7" d="M562.37,776.01c-6.21-.04-5.97.17-10.3-1.6-2.24-.92-5.06-3.19-3.29-.67,4.84,6.88,13.69,4.69,13.58,2.27Z"/>
    </g>
  </g>
  <g>
    <path class="cls-18" d="M263.24,835.06s14.21,69.49,19.62,80.85c5.41,11.36,27.05,52.23,27.05,52.23l-6.31,4.38s-39-40.37-40.36-44.71c-1.36-4.34-26.89-58.46-26.89-58.46l26.89-34.3Z"/>
    <path class="cls-9" d="M238.08,739.38s-22.37-32.81-46.86-13.26c0,0-12.1,5.02-16.48,25.62-4.47,21.02,9.51,36.99,16.73,33.04,4.64-2.53,8.14,5.58,8.14,5.58l38.46-50.97Z"/>
    <path class="cls-18" d="M164.11,945.71c10.82-24.28,16.01-31.15,16.18-38.79.15-6.03-2.83-12.55-8.62-28.54-1.36-3.76-2.3-7.64-2.88-11.55-4.57-30.81,13.24-64.11,24.32-66.38,3.08-.81,8.3-11.95,8.24-29.88l1.38.27,23.32,4.62s-.53,7.33-.54,14.24c-.02,5.77.33,11.22,1.63,11.91,1.68.16,2.67.26,2.67.26,0,0,19.44,26.99,21.07,52.11,1.64,25.11-15.57,36.02.13,86.21,16.03,51.24-92.88,18.92-86.9,5.52Z"/>
    <path class="cls-4" d="M226.05,775.47s-.53,7.33-.54,14.24c-13.05-.37-19.94-12.27-22.77-18.86l23.32,4.62Z"/>
    <path class="cls-9" d="M200.33,768.3s-6.84-10.8-8.48-20.04c-1.17-6.59,2.19-31.04,26.75-27.52,0,0,7.13.71,13.84,5.24,5.33,3.61,13.03,11.38,4.43,32.72l-2.24,7.21-34.31,2.41Z"/>
    <path class="cls-18" d="M230.41,782.01s-30.87.51-30.89-18.72c-.02-19.23-4.02-32.11,15.69-33.25,19.71-1.14,23.55,6.19,25.11,12.61,1.57,6.42-1.88,38.74-9.91,39.37Z"/>
    <path class="cls-9" d="M229.27,729.56s-8.46,22.56-21.42,25.89c-12.97,3.34-18.6-.13-18.6-.13,0,0,9.95-7.91,12.02-21.71,0,0,21.63-14.79,28.01-4.06Z"/>
    <path class="cls-9" d="M227.17,731.4s6.31,5.04,7.85,9.93c1.54,4.9,2.23,14.97,5.17,14.63,0,0,6.37-15.33-.79-24.01-7.59-9.2-12.23-.56-12.23-.56Z"/>
    <path class="cls-1" d="M191.45,1178.67c7.77,30.89,19.46,54.57,19.46,54.57l10.18-.71s-4.99-23.74-4.71-55.84c.2-22.44,2.98-48.95,11.84-74.26,30.46-86.99,25.54-150.32,25.54-150.32l-57.28,6.7-2.67.32c-.24,26.31-.92,62.03-1.51,89.97-.53,25.11-.99,43.93-.99,43.93-11.01,23.72-7.01,57.2.14,85.64Z"/>
    <path class="cls-18" d="M123.96,971.49l9.27,2.78s30.57-50.72,33.35-63.91c.91-4.3,3.13-12.91,5.73-22.53,5.37-19.96,12.3-44.37,12.3-44.37l2.28-9.88,7.79-33.71s-14.9,1.53-23.62,5.17c-2.89,1.21-5.09,2.64-5.86,4.33-6.4,14.08-12.79,49.6-17.29,74.96-2.5,14.13-4.41,25.09-5.41,27.42-2.78,6.48-11.27,42.15-18.53,59.75Z"/>
    <path class="cls-24" d="M146.29,1146.05c-2.8,18.81-9.77,70.79-7.06,79.49l11.11-1.87s20.42-46.97,25.06-59.85c9.54-26.52,20.59-42.64,24.35-55.08,11.76-38.91,26.36-165.79,26.36-165.79l-58.08-2.88c-5.84,9.82-8.39,25.93-8.99,44.24-1.53,46.22,4.63,99.67,6.26,108.38-4.74,7.79-13.77,18.03-19.02,53.37Z"/>
    <path class="cls-9" d="M228.34,732.15s-6.02,23.63-22.38,31.2c0,0,16.36-14.52,17.75-30.12,1.39-15.59,4.63-1.08,4.63-1.08Z"/>
    <path class="cls-17" d="M156.83,963.23c-.1,1.96,0,3.52.36,4.65,1.23,3.88,5.48,5.66,15.74,4.6,6.27-.65,9.07-11.15,10.31-20.13,3.76,12.83,9.04,20.03,15.86,21.54,9.95,2.21,60.12,8.31,63.4-15.54,3.61-26.23-7.21-72.68-7.8-97.73,1.48-8.88,1.98-16.59,1.82-23.2-.42-17.84-5.66-27.84-9.68-31.87-1.14-.87-2.28-1.42-6.86-2.2-2.34-.4-5.58-.86-10.18-1.46,0,0-1.87-.22-1.83-.15.85,1.52,12.21,18.73,11.33,23.15-.93,4.63-41.23.47-44.01-2.08-2.78-2.54-7.18-22.06-7.18-22.06,0,0-14.27,1.55-21.25,6.64,0,0,.03.03.07.08-.84.61-1.48,1.25-1.83,1.93-7.45,14.19-14.89,49.98-20.11,75.5,12.68,6.99,23.75,4.91,27.19,3.98-4.5,29.4-14.68,60.96-15.35,74.36Z"/>
    <path class="cls-9" d="M205.04,1241.79h6.5c2.18-.35,3.78-.97,6.02-1.26,3.39-.45,4.95.94,5.26,1.26l.05.07h27.61c.69-1,.03-3.29-.62-4.99-.44-1.15-1.4-2.02-2.58-2.36-2.93-.85-8.7-1.6-13.99-6.38-2.98-2.69-14.36-9.89-14.36-9.89l-.06-.02c-.25,0-1.44.38-6.62,4.75-2.68,2.26-7.24-3.18-7.24-3.18,0,0-.86.71-1.5,2.03-.51,1.05-.88,2.48-.59,4.24.42,2.49-.92,7.11-1.98,10.24-.64,1.89-1.19,3.24-1.19,3.24,0,0-.31,1.55,5.29,2.26Z"/>
    <path class="cls-25" d="M203.51,1221.81c1.55,1.1,4.83,3.24,7,3.53,2.93.38,8.42-7.11,8.42-7.11l-.06-.02c-.25,0-1.44.38-6.62,4.75-2.68,2.26-7.24-3.18-7.24-3.18,0,0-.86.71-1.5,2.03Z"/>
    <path class="cls-25" d="M205.04,1241.79h6.5c2.18-.35,3.78-.97,6.02-1.26,3.39-.45,4.95.94,5.26,1.26l.05.07h27.61c.69-1,.03-3.29-.62-4.99-.84-.75-1.08,3.24-1.54,3.87-.46.64-22.52.23-23.79-.7-1.28-.92-5.09-2.54-10.42-1.26-4.64,1.1-11.47-1.74-13.16-2.49-.64,1.89-1.19,3.24-1.19,3.24,0,0-.31,1.55,5.29,2.26Z"/>
    <path class="cls-9" d="M138.35,1241.79h6.5c2.18-.35,3.79-.97,6.02-1.26,3.39-.45,4.95.94,5.26,1.26l.06.07h27.61c.7-1,.03-3.29-.62-4.99-.44-1.15-1.4-2.02-2.58-2.36-2.93-.85-8.7-1.6-13.99-6.38-2.97-2.69-14.36-9.89-14.36-9.89l-.06-.02c-.25,0-1.44.38-6.62,4.75-2.68,2.26-7.24-3.18-7.24-3.18,0,0-.86.71-1.5,2.03-.51,1.05-.89,2.48-.59,4.24.42,2.49-.91,7.11-1.98,10.24-.64,1.89-1.18,3.24-1.18,3.24,0,0-.31,1.55,5.28,2.26Z"/>
    <path class="cls-25" d="M136.83,1221.81c1.55,1.1,4.83,3.24,7,3.53,2.93.38,8.41-7.11,8.41-7.11l-.06-.02c-.25,0-1.44.38-6.62,4.75-2.68,2.26-7.24-3.18-7.24-3.18,0,0-.86.71-1.5,2.03Z"/>
    <path class="cls-25" d="M138.35,1241.79h6.5c2.18-.35,3.79-.97,6.02-1.26,3.39-.45,4.95.94,5.26,1.26l.06.07h27.61c.7-1,.03-3.29-.62-4.99-.84-.75-1.08,3.24-1.54,3.87-.46.64-22.52.23-23.8-.7-1.27-.92-5.09-2.54-10.42-1.26-4.64,1.1-11.47-1.74-13.16-2.49-.64,1.89-1.18,3.24-1.18,3.24,0,0-.31,1.55,5.28,2.26Z"/>
    <path class="cls-13" d="M156.83,963.23c6.89-2.3,15.74-8.42,26.36-22.14,28.11-36.35,2.38-79.05-1.06-79.84-3.45-.8-9.94,27.62-9.94,27.62-4.5,29.4-14.68,60.96-15.35,74.36Z"/>
    <path class="cls-17" d="M245.12,804.73s19.25,9.69,25.66,48.79c0,0-6.3,8.64-15.18,11.19-1.27.37-2.59.61-3.96.68-10.9.58-6.52-60.66-6.52-60.66Z"/>
    <path class="cls-18" d="M309.91,968.14s10.82,8.89,10.55,12.95c-.27,4.05-6.49,11.09-10.55,10.81-4.06-.27-6.31-19.38-6.31-19.38l6.31-4.38Z"/>
    <path class="cls-18" d="M125.61,967.23s-13.42,8.26-15.37,11.83c-1.94,3.57-6.49,16.7-6.49,16.7,0,0,3.25.49,6.49-5.19,3.24-5.68,13.94-5.19,17.51-8.27,3.57-3.08,7.71-12.11,7.71-12.11l-9.86-2.96Z"/>
    <path class="cls-18" d="M134.09,972.98s-2.12,9.97-4.71,12.88c-2.6,2.92-6.16,7.79-7.62,6.49-1.46-1.3,1.62-12.16,1.62-12.16l10.71-7.21Z"/>
    <path class="cls-18" d="M112.03,980.2c-.32.48-11.51,12.37-11.51,12.37,0,0,4.05,1.85,5.19,0,1.13-1.83,6.32-12.37,6.32-12.37Z"/>
    <path class="cls-3" d="M233.91,756.05c.71.03,1.32-.71,1.36-1.66.04-.95-.5-1.74-1.21-1.77-.71-.03-1.32.71-1.36,1.65-.04.95.5,1.75,1.21,1.78Z"/>
    <g>
      <path class="cls-3" d="M223.42,753.38c-6.62-1.61-5.75-1.4-10.87,1.73,1.73-3.32,4.83-4.47,8.31-3.82,1.63.3,1.91.23,2.56,2.09Z"/>
      <path class="cls-3" d="M219.62,756.77c-.69.07-1.33-.65-1.41-1.59-.09-.94.4-1.75,1.1-1.82.69-.07,1.33.65,1.42,1.59.08.94-.41,1.76-1.1,1.82Z"/>
      <path class="cls-3" d="M229.7,753.1c5.93-2.77,5.15-2.4,10.5-.24-2.21-2.96-5.33-3.54-8.48-2.28-1.47.58-1.75.56-2.02,2.52Z"/>
      <path class="cls-33" d="M225.21,767.18c-.26,0-.47-.19-.5-.46-.02-.27.18-.52.45-.54l1.51-.14c.71-.06,1.23-.15,1.39-.35.13-.17.16-.56.07-1.25-.07-.5-.25-1.11-.49-1.86-.38-1.21-.9-2.88-1.18-5.16-.04-.27.16-.52.43-.56.25-.07.52.16.56.43.27,2.2.76,3.74,1.15,4.99.25.81.45,1.45.53,2.04.1.86.1,1.52-.29,1.99-.43.53-1.19.63-2.07.71l-1.51.14h-.05Z"/>
      <path class="cls-7" d="M220.26,772.49c6.61-.14,11.67-.93,10.03.47-1.73,1.65-6.27,1.55-10.03-.47Z"/>
      <path class="cls-12" d="M233.83,752.65c-.13,0-.2.31-.17.67.03.35.17.63.29.62.13,0,.21-.31.17-.66-.03-.35-.16-.63-.29-.62Z"/>
    </g>
    <path class="cls-12" d="M219.78,753.56c-.12,0-.2.31-.17.66.03.35.16.63.29.62.13-.02.21-.31.17-.67-.03-.35-.17-.63-.29-.62Z"/>
  </g>
  <g>
    <polygon class="cls-12" points="1652.06 571.51 1606.59 607.57 1625.99 621.56 1652.06 571.51"/>
    <polygon class="cls-12" points="1596.86 601.15 1650.51 572.08 1580.72 597.91 1596.86 601.15"/>
    <polygon class="cls-8" points="1596.86 601.15 1605.07 624.5 1606.59 607.57 1652.06 571.51 1650.51 572.08 1596.86 601.15"/>
    <polygon class="cls-13" points="1605.07 624.5 1615.19 613.76 1606.59 607.57 1605.07 624.5"/>
    <path class="cls-8" d="M1593,615.21c1.26-.72,2.2,1.12,1.1,1.76-.58.36-1.16.71-1.73,1.1-1.32.76-2.18-1.13-1.13-1.73.58-.39,1.17-.76,1.76-1.13h0ZM1652.15,722.49c-.33,1.3-2.34.82-2.01-.51.17-.66.32-1.31.46-1.98.36-1.41,2.34-.81,2.03.44-.15.68-.31,1.37-.48,2.05h0ZM1653.51,714.12c0,1.23-2.07,1.4-2.07-.11.03-.67.07-1.34.07-2.01,0-1.37,2.07-1.36,2.07,0,0,.71-.02,1.41-.07,2.13h0ZM1652.98,705.62c.18,1.4-1.7,1.7-2.03.39-.12-.65-.27-1.31-.44-1.95-.34-1.37,1.69-1.82,2-.53.18.68.34,1.4.46,2.09h0ZM1650.29,697.52c.6,1.06-1.11,2.23-1.85.93-.27-.57-.61-1.25-.94-1.78-.7-1.21,1.12-2.19,1.78-1.05.37.59.71,1.28,1.01,1.9h0ZM1645.59,690.4c.91,1.08-.71,2.37-1.56,1.36-.44-.51-.88-1.01-1.35-1.49-.93-.94.49-2.44,1.5-1.45.48.51.95,1.04,1.41,1.58h0ZM1639.44,684.57c1.13.94-.29,2.45-1.26,1.65-.53-.42-1.08-.82-1.63-1.21-1.13-.81.1-2.48,1.19-1.7.57.42,1.15.83,1.7,1.26h0ZM1632.34,679.98c1.25.71.15,2.47-.97,1.83-.61-.32-1.2-.63-1.81-.93-1.32-.76-.13-2.46.91-1.86.62.32,1.25.63,1.87.96h0ZM1624.67,676.52c1.29.48.55,2.41-.72,1.94l-1.92-.69c-1.36-.5-.54-2.41.66-1.96.66.23,1.33.47,1.99.71h0ZM1616.64,674.05c1.34.33.82,2.34-.49,2.01l-1.99-.46c-1.41-.36-.8-2.34.43-2.03l2.05.47h0ZM1608.39,672.49c1.34.17,1.1,2.23-.27,2.05l-2.04-.23c-1.4-.18-1.09-2.23.22-2.06.7.07,1.39.15,2.09.24h0ZM1600.06,671.82c1.38.17,1.25,2.08-.13,2.08-.68-.05-1.38-.08-2.08-.14-1.48-.18-1.08-2.22.16-2.07l2.05.13h0ZM1591.89,671.09c1.33.17,1.1,2.22-.27,2.04-.69-.08-1.38-.18-2.07-.28-1.29-.17-1.11-2.23.32-2.05.67.1,1.35.2,2.03.29h0ZM1583.85,669.63c1.32.33.82,2.34-.51,2.01-.68-.17-1.36-.33-2.04-.53-1.23-.31-.84-2.34.57-2,.65.2,1.32.36,1.97.52h0ZM1576.18,667.08c1.2.52.45,2.44-.86,1.88-.66-.28-1.3-.61-1.94-.94-1.22-.71-.15-2.48,1-1.82.55.32,1.21.62,1.8.88h0ZM1569.6,662.78c.95.95-.5,2.43-1.48,1.45-.52-.52-1.01-1.06-1.46-1.65-.8-.95.7-2.39,1.65-1.25.39.52.83.99,1.29,1.45h0ZM1565.91,656.16c.3,1.22-1.66,1.85-2.03.41-.14-.74-.23-1.45-.28-2.2,0-1.5,2.07-1.35,2.07-.11.04.65.12,1.25.24,1.89h0ZM1566.37,648.45c-.31,1.25-2.34.84-1.99-.56.2-.69.42-1.38.66-2.04.48-1.29,2.43-.55,1.95.71-.23.62-.43,1.26-.62,1.89h0ZM1569.6,641.12c-.66,1.16-2.49.17-1.79-1.05.28-.57.76-1.26,1.11-1.81.6-1.05,2.48-.18,1.73,1.14-.32.45-.81,1.24-1.05,1.72h0ZM1574.23,634.46c-.9,1.08-2.46-.28-1.61-1.3.44-.55.9-1.09,1.35-1.61.85-1.02,2.48.27,1.57,1.35-.44.52-.88,1.04-1.3,1.56h0ZM1579.72,628.41c-.95.96-2.43-.49-1.45-1.47.48-.47,1.01-1.01,1.5-1.45.91-.91,2.44.48,1.42,1.51-.49.47-.99.94-1.47,1.41h0ZM1585.8,622.94c-1.03.85-2.39-.71-1.31-1.61l1.64-1.31c.98-.81,2.38.71,1.27,1.64-.53.39-1.08.86-1.6,1.29Z"/>
  </g>
  <g>
    <polygon class="cls-12" points="289.05 425.84 243.59 461.9 262.98 475.89 289.05 425.84"/>
    <polygon class="cls-12" points="233.84 455.48 287.5 426.41 217.71 452.24 233.84 455.48"/>
    <polygon class="cls-8" points="233.84 455.48 242.05 478.84 243.59 461.9 289.05 425.84 287.5 426.41 233.84 455.48"/>
    <polygon class="cls-13" points="242.05 478.84 252.18 468.1 243.59 461.9 242.05 478.84"/>
    <path class="cls-8" d="M234.3,473.46c1.23-.7.13-2.34-.89-1.75-.6.31-1.18.63-1.77.97-1.12.64-.15,2.35.98,1.71.56-.32,1.11-.63,1.68-.92h0ZM79.01,502.11c-.91-1.08-2.32.28-1.57,1.18l1.21,1.58c.87,1.04,2.33-.27,1.54-1.23l-1.18-1.54h0ZM83.98,508.07c-.97-.96-2.3.48-1.43,1.35.46.49.92.97,1.39,1.44.91.91,2.31-.47,1.38-1.4-.46-.46-.91-.92-1.35-1.39h0ZM89.61,513.39c-.99-.83-2.25.68-1.25,1.52.51.42,1.03.85,1.55,1.26.93.77,2.27-.67,1.21-1.56-.51-.4-1.01-.81-1.5-1.22h0ZM95.85,517.99c-1.24-.71-2.08,1.07-1.06,1.65.56.36,1.13.71,1.7,1.06,1.16.66,2.09-1.07,1.01-1.69-.55-.33-1.1-.67-1.64-1.02h0ZM102.59,521.77c-1.28-.55-1.95,1.3-.84,1.77.6.29,1.2.57,1.81.84,1.21.52,1.96-1.3.79-1.8-.59-.27-1.17-.54-1.76-.81h0ZM109.77,524.71c-1.13-.42-1.92,1.38-.62,1.87.63.21,1.26.42,1.89.61,1.38.35,1.72-1.6.57-1.88-.62-.19-1.23-.39-1.84-.6h0ZM117.24,526.77c-1.17-.29-1.75,1.59-.41,1.92.65.14,1.3.27,1.96.39,1.43.18,1.5-1.79.35-1.93-.64-.12-1.27-.25-1.9-.38h0ZM124.91,527.98c-1.23-.15-1.55,1.79-.2,1.96.67.07,1.33.12,1.99.17,1.15.15,1.55-1.78.13-1.96l-1.92-.17h0ZM132.66,528.34c-1.28,0-1.3,1.97.02,1.97.66,0,1.33-.01,1.99-.04,1.21,0,1.31-1.97-.07-1.97-.65.02-1.3.03-1.94.03h0ZM140.41,527.91c-1.32.16-1.03,2.11.22,1.96.66-.07,1.32-.15,1.98-.24,1.25-.16,1.05-2.12-.27-1.95-.64.08-1.28.16-1.93.23h0ZM148.08,526.69c-1.33.34-.77,2.22.42,1.92.65-.14,1.3-.28,1.94-.44,1.28-.32.78-2.22-.46-1.91-.64.15-1.26.29-1.9.42h0ZM155.58,524.7c-1.3.49-.51,2.29.62,1.87.63-.21,1.26-.42,1.89-.64,1.25-.47.52-2.3-.67-1.85-.61.22-1.23.42-1.84.62h0ZM162.81,521.9c-1.13.49-.43,2.32.83,1.79.6-.28,1.2-.56,1.8-.85.56-.32.64-.82.48-1.23l.32.07c1.43.18,1.5-1.79.36-1.94-.63-.13-1.24-.27-1.86-.42-1.25-.31-1.74,1.6-.48,1.91l-1.45.68h0ZM169.64,518.26c-1.03.59-.17,2.36,1.06,1.66.56-.35,1.13-.71,1.68-1.09,1.09-.78-.1-2.35-1.12-1.62-.53.37-1.07.71-1.62,1.06h0ZM175.82,513.67c-.93.78.25,2.36,1.31,1.47.51-.44.99-.91,1.47-1.38.93-.93-.48-2.31-1.38-1.4-.46.45-.92.89-1.4,1.31h0ZM180.91,508c-.73,1.01.84,2.2,1.62,1.11.39-.56.75-1.14,1.1-1.73.64-1.13-1.07-2.1-1.71-.98-.32.54-.65,1.08-1.01,1.6h0ZM184.02,501.24c-.3,1.19,1.59,1.75,1.92.42.16-.69.27-1.35.35-2.04.15-1.24-1.79-1.54-1.96-.21-.07.63-.18,1.22-.32,1.83h0ZM183.91,493.94c.29,1.15,2.23.8,1.89-.56-.19-.67-.4-1.33-.67-1.97-.52-1.2-2.32-.42-1.81.77.24.56.42,1.17.59,1.76h0ZM180.48,487.28c.88,1.05,2.31-.15,1.59-1.17-.4-.54-.8-1.08-1.23-1.6-.85-1.01-2.34.27-1.52,1.25.41.5.79,1.01,1.16,1.52h0ZM175.31,481.75c.93.77,2.27-.67,1.21-1.55-.54-.43-1.08-.82-1.66-1.2-1.25-.71-2.07,1.08-1.08,1.65.53.35,1.03.71,1.53,1.1h0ZM168.71,478.34c1.29.32,1.73-1.6.5-1.9-.67-.18-1.36-.32-2.04-.42-1.32-.17-1.52,1.79-.27,1.95.6.08,1.23.22,1.81.37h0ZM161.38,478.13c1.34-.34.76-2.22-.41-1.92-.67.13-1.35.31-2.01.52-1.18.44-.71,2.2.61,1.87.58-.19,1.2-.34,1.81-.47h0ZM154.52,481.04c1.11-.79-.1-2.35-1.1-1.62-.57.38-1.11.78-1.65,1.21-1.02.85.27,2.34,1.24,1.53.48-.39,1.01-.76,1.52-1.11h0ZM149.02,486.17c.77-.93-.67-2.27-1.56-1.2-.42.54-.81,1.09-1.19,1.66-.71,1.25,1.08,2.08,1.65,1.07.34-.53.72-1.04,1.1-1.53h0ZM145.38,492.76c.44-1.17-1.38-1.92-1.85-.65-.23.64-.43,1.3-.6,1.97-.32,1.27,1.6,1.73,1.91.48.16-.6.34-1.21.55-1.79h0ZM144.21,500.11c0-1.17-1.97-1.32-1.97.1.03.69.1,1.39.2,2.07.15,1.2,2.12,1.06,1.94-.32-.1-.61-.15-1.23-.18-1.85h0ZM146.14,507.22c-.67-1.18-2.35-.14-1.73.93.32.61.7,1.22,1.09,1.78.76,1.06,2.35-.09,1.6-1.14-.35-.5-.68-1.04-.96-1.58h0ZM150.94,512.87c-.94-.78-2.26.67-1.21,1.55.54.42,1.08.83,1.64,1.21,1.18.67,2.11-.91,1.1-1.64-.53-.36-1.03-.73-1.52-1.13h0ZM157.49,516.74c-1.23-.53-1.95,1.3-.8,1.79.62.27,1.23.54,1.85.79,1.21.46,1.93-1.31.73-1.82-.6-.24-1.19-.5-1.77-.76h0ZM172.28,520.34c.63,0,1.27,0,1.9-.05,1.15-.14,1.55,1.79.13,1.96-.67.05-1.35.06-2.03.05-1.3,0-1.29-1.97,0-1.97h0ZM179.79,519.36c-1.19.29-.8,2.22.53,1.9.64-.16,1.32-.4,1.94-.62,1.25-.47.52-2.29-.67-1.85-.58.2-1.22.42-1.81.57h0ZM186.79,516.38c-1.11.64-.15,2.36.99,1.7.58-.33,1.17-.69,1.72-1.05.99-.57.18-2.36-1.08-1.65-.53.35-1.08.69-1.63,1h0ZM193.06,511.94c-.98.81.26,2.34,1.27,1.5.51-.43,1.01-.86,1.5-1.31.93-.77-.25-2.35-1.31-1.46-.49.43-.97.86-1.46,1.28h0ZM198.69,506.6c-.88.88.47,2.31,1.42,1.35l1.36-1.45c.91-1.09-.7-2.24-1.45-1.33-.44.48-.89.95-1.33,1.42h0ZM203.9,500.77c-.84,1.01.69,2.25,1.5,1.27l1.27-1.5c.84-1.01-.68-2.26-1.5-1.27l-1.27,1.5h0ZM208.92,494.74c-.82.98.68,2.26,1.52,1.25l1.25-1.52c.82-.98-.68-2.26-1.52-1.25l-1.25,1.52h0ZM213.97,488.68c-.85,1.02.69,2.25,1.5,1.28l1.28-1.48c.87-1.04-.69-2.25-1.48-1.3l-1.29,1.5h0ZM219.28,482.79c-.88.88.47,2.31,1.42,1.36l1.36-1.39c.93-.93-.47-2.3-1.38-1.4l-1.4,1.42h0ZM225.08,477.32c-.99.83.26,2.34,1.26,1.51.48-.41.99-.83,1.5-1.21,1.07-.89-.28-2.33-1.2-1.56-.53.41-1.05.83-1.56,1.26Z"/>
  </g>
</svg>