<?xml version="1.0" encoding="UTF-8"?>
<svg id="Layer_1" xmlns="http://www.w3.org/2000/svg" version="1.1" viewBox="0 0 20 20">
  <!-- Generator: Adobe Illustrator 29.4.0, SVG Export Plug-In . SVG Version: 2.1.0 Build 152)  -->
  <path d="M12.9,2.2c-.2.4-.4.7-.5,1.1-1.5-.2-3.1-.2-4.6,0-.2-.4-.3-.7-.5-1.1-1.4.2-2.8.7-4.1,1.3C.7,6.9-.3,11,0,15.1c1.5,1.1,3.2,2,5.1,2.6.4-.5.8-1.1,1.1-1.7-.6-.2-1.2-.5-1.7-.8.1,0,.3-.2.4-.3,3.2,1.5,6.9,1.5,10.1,0,.1.1.3.2.4.3-.5.3-1.1.6-1.7.8.3.6.7,1.2,1.1,1.8,1.8-.6,3.5-1.4,5.1-2.6.4-4.1-.6-8.2-3-11.6-1.3-.6-2.7-1.1-4.1-1.4ZM6.7,12.8c-1,0-1.8-1-1.8-2,0-1,.8-1.9,1.8-2,1,0,1.8,1,1.8,2,0,1-.8,1.9-1.8,2ZM13.4,12.8c-1,0-1.8-1-1.8-2,0-1,.8-1.9,1.8-2,1,0,1.8,1,1.8,2,0,1-.8,1.9-1.8,2Z"/>
</svg>