<?xml version="1.0" encoding="UTF-8"?>
<svg id="Layer_1" xmlns="http://www.w3.org/2000/svg" version="1.1" viewBox="0 0 18 18">
  <!-- Generator: Adobe Illustrator 29.4.0, SVG Export Plug-In . SVG Version: 2.1.0 Build 152)  -->
  <path d="M9,4.4c-2.6,0-4.6,2.1-4.6,4.6s2.1,4.6,4.6,4.6,4.6-2.1,4.6-4.6-2.1-4.6-4.6-4.6ZM9,12c-1.7,0-3-1.3-3-3,0-1.7,1.3-3,3-3h0c1.7,0,3,1.3,3,3,0,1.7-1.3,3-3,3Z"/>
  <circle cx="13.8" cy="4.2" r="1.1"/>
  <path d="M17.5,3.1c-.5-1.2-1.4-2.2-2.6-2.6-.7-.3-1.4-.4-2.2-.4-1,0-1.3,0-3.7,0s-2.8,0-3.7,0c-.7,0-1.5.2-2.2.4C1.9.9.9,1.9.5,3.1.2,3.8,0,4.5,0,5.3c0,1,0,1.3,0,3.7s0,2.8,0,3.7c0,.7.2,1.5.4,2.2.5,1.2,1.4,2.2,2.6,2.6.7.3,1.4.4,2.2.5,1,0,1.3,0,3.7,0s2.8,0,3.7,0c.7,0,1.5-.2,2.2-.4,1.2-.5,2.2-1.4,2.6-2.6.3-.7.4-1.4.4-2.2,0-1,0-1.3,0-3.7s0-2.8,0-3.7c0-.8-.2-1.5-.4-2.2ZM16.3,12.6c0,.6-.1,1.1-.3,1.7-.3.8-.9,1.4-1.7,1.7-.5.2-1.1.3-1.7.3-.9,0-1.2,0-3.7,0s-2.7,0-3.7,0c-.6,0-1.1-.1-1.7-.3-.8-.3-1.4-.9-1.7-1.7-.2-.5-.3-1.1-.3-1.7,0-.9,0-1.2,0-3.7s0-2.7,0-3.7c0-.6.1-1.1.3-1.7.3-.8.9-1.4,1.7-1.7.5-.2,1.1-.3,1.7-.3,1,0,1.2,0,3.7,0s2.7,0,3.7,0c.6,0,1.1.1,1.7.3.8.3,1.4.9,1.7,1.7.2.5.3,1.1.3,1.7,0,1,0,1.2,0,3.7s0,2.7,0,3.7h0Z"/>
</svg>