<?xml version="1.0" encoding="UTF-8"?>
<!DOCTYPE svg PUBLIC "-//W3C//DTD SVG 1.1//EN" "http://www.w3.org/Graphics/SVG/1.1/DTD/svg11.dtd">
<svg xmlns="http://www.w3.org/2000/svg" version="1.1" width="1600px" height="900px" style="shape-rendering:geometricPrecision; text-rendering:geometricPrecision; image-rendering:optimizeQuality; fill-rule:evenodd; clip-rule:evenodd" xmlns:xlink="http://www.w3.org/1999/xlink">
<g><path style="opacity:0.999" fill="#4c6afe" d="M 1045.5,64.5 C 1045.73,67.5418 1046.73,70.2084 1048.5,72.5C 1052.17,79.8287 1056.84,86.4954 1062.5,92.5C 1062.97,93.9063 1063.97,94.573 1065.5,94.5C 1077.09,103.13 1089.75,109.963 1103.5,115C 1134.15,129.452 1152.98,153.286 1160,186.5C 1168.97,176.341 1179.47,168.341 1191.5,162.5C 1193.03,162.573 1194.03,161.906 1194.5,160.5C 1217.36,148.877 1241.53,144.544 1267,147.5C 1280.32,146.378 1292.82,142.544 1304.5,136C 1310.74,131.725 1316.74,127.225 1322.5,122.5C 1323.83,121.833 1324.83,120.833 1325.5,119.5C 1329.5,113.5 1334.5,108.5 1340.5,104.5C 1341.5,104.167 1342.17,103.5 1342.5,102.5C 1344.7,99.5614 1347.7,97.8947 1351.5,97.5C 1360.2,98.6608 1365.87,103.328 1368.5,111.5C 1368.12,113.698 1368.79,115.365 1370.5,116.5C 1370.5,120.833 1370.5,125.167 1370.5,129.5C 1369.78,129.918 1369.28,130.584 1369,131.5C 1368.24,137.149 1367.74,142.816 1367.5,148.5C 1364.92,169.494 1359.26,189.494 1350.5,208.5C 1349.07,209.78 1348.4,211.447 1348.5,213.5C 1341.64,229.229 1332.31,243.229 1320.5,255.5C 1319.09,255.973 1318.43,256.973 1318.5,258.5C 1316.17,261.5 1313.5,264.167 1310.5,266.5C 1309.17,266.5 1308.5,267.167 1308.5,268.5C 1282.47,292.015 1252.14,307.348 1217.5,314.5C 1211.3,315.089 1205.3,316.089 1199.5,317.5C 1196.18,318.223 1192.84,319.057 1189.5,320C 1188.3,320.903 1187.47,322.069 1187,323.5C 1187.17,337.496 1187.17,351.496 1187,365.5C 1186.65,370.389 1185.81,375.056 1184.5,379.5C 1183.1,383.591 1182.44,387.924 1182.5,392.5C 1175.13,438.666 1162.79,483.333 1145.5,526.5C 1144.07,527.78 1143.4,529.447 1143.5,531.5C 1133.82,555.862 1121.82,578.862 1107.5,600.5C 1106.09,600.973 1105.43,601.973 1105.5,603.5C 1091.07,625.936 1074.74,646.936 1056.5,666.5C 1055.09,666.973 1054.43,667.973 1054.5,669.5C 1049.74,675.354 1044.74,681.021 1039.5,686.5C 1038.17,686.5 1037.5,687.167 1037.5,688.5C 1033.51,693.135 1029.51,697.802 1025.5,702.5C 1026.98,703.48 1028.31,704.647 1029.5,706C 1046.53,712.458 1063.53,719.125 1080.5,726C 1090.26,730.549 1099.92,735.049 1109.5,739.5C 1110.51,740.674 1111.85,741.34 1113.5,741.5C 1131.14,745.606 1137.3,756.272 1132,773.5C 1130.11,777.958 1127.28,781.625 1123.5,784.5C 1121.97,784.427 1120.97,785.094 1120.5,786.5C 1114.47,790.4 1107.8,792.733 1100.5,793.5C 1094.61,793.98 1088.95,794.98 1083.5,796.5C 1070.76,798.883 1057.76,799.883 1044.5,799.5C 1030.35,799.82 1016.35,798.82 1002.5,796.5C 1000.39,795.532 998.059,795.198 995.5,795.5C 995.167,795.5 994.833,795.5 994.5,795.5C 992.735,794.539 990.735,794.205 988.5,794.5C 971.603,792.368 955.436,787.701 940,780.5C 929.3,788.703 918.466,796.703 907.5,804.5C 905.973,804.427 904.973,805.094 904.5,806.5C 875.864,826.815 844.531,841.815 810.5,851.5C 808.214,851.595 806.214,852.262 804.5,853.5C 791.645,857.47 778.645,860.137 765.5,861.5C 763.901,861.232 762.568,861.566 761.5,862.5C 716.358,869.863 671.024,871.196 625.5,866.5C 620.731,865.111 615.731,864.444 610.5,864.5C 606.733,863.205 602.733,862.539 598.5,862.5C 584.828,860.502 571.495,857.502 558.5,853.5C 556.786,852.262 554.786,851.595 552.5,851.5C 538.657,848.219 525.324,843.553 512.5,837.5C 510.574,835.707 508.241,834.707 505.5,834.5C 498.832,832.063 492.498,829.063 486.5,825.5C 485.486,824.326 484.153,823.66 482.5,823.5C 478.407,821.691 474.407,819.691 470.5,817.5C 470.027,816.094 469.027,815.427 467.5,815.5C 433.99,797.077 403.323,774.744 375.5,748.5C 375.167,747.5 374.5,746.833 373.5,746.5C 364.507,739.173 356.174,731.173 348.5,722.5C 348.262,720.596 347.262,719.262 345.5,718.5C 339.491,712.49 333.825,706.157 328.5,699.5C 328.573,697.973 327.906,696.973 326.5,696.5C 321.15,690.478 316.15,684.145 311.5,677.5C 311.573,675.973 310.906,674.973 309.5,674.5C 309.573,672.973 308.906,671.973 307.5,671.5C 303.922,666.68 300.588,661.68 297.5,656.5C 297.573,654.973 296.906,653.973 295.5,653.5C 275.365,622.45 260.031,589.117 249.5,553.5C 249.59,550.848 248.924,548.515 247.5,546.5C 245.008,539.07 243.008,531.404 241.5,523.5C 241.435,520.572 240.768,517.905 239.5,515.5C 235.959,501.259 233.626,486.926 232.5,472.5C 232.795,470.265 232.461,468.265 231.5,466.5C 231.5,466.167 231.5,465.833 231.5,465.5C 231.81,462.287 231.477,459.287 230.5,456.5C 230.5,456.167 230.5,455.833 230.5,455.5C 230.793,448.595 230.126,441.928 228.5,435.5C 228.5,423.833 228.5,412.167 228.5,400.5C 230.228,394.762 230.895,388.762 230.5,382.5C 231.477,379.713 231.81,376.713 231.5,373.5C 231.5,373.167 231.5,372.833 231.5,372.5C 232.451,371.081 232.784,369.415 232.5,367.5C 233.404,356.08 235.404,344.747 238.5,333.5C 239.768,331.095 240.435,328.428 240.5,325.5C 241.612,323.401 242.279,321.067 242.5,318.5C 246.548,301.346 252.548,285.012 260.5,269.5C 261.674,268.486 262.34,267.153 262.5,265.5C 263.659,261.849 265.326,258.515 267.5,255.5C 268.674,254.486 269.34,253.153 269.5,251.5C 277.252,236.316 286.252,221.983 296.5,208.5C 297.906,208.027 298.573,207.027 298.5,205.5C 312.745,186.587 328.745,169.253 346.5,153.5C 348.027,153.573 349.027,152.906 349.5,151.5C 372.601,131.272 398.601,115.605 427.5,104.5C 429.553,104.598 431.22,103.931 432.5,102.5C 454.55,93.6542 477.216,87.9876 500.5,85.5C 506.373,85.404 512.04,84.7373 517.5,83.5C 517.833,83.5 518.167,83.5 518.5,83.5C 522.371,83.815 526.038,83.4816 529.5,82.5C 537.001,81.8491 544.501,81.1825 552,80.5C 553.145,80.6191 554.312,80.9524 555.5,81.5C 560.711,81.6351 565.711,81.6351 570.5,81.5C 571.936,81.2454 573.436,80.9121 575,80.5C 582.467,81.2161 589.967,81.8828 597.5,82.5C 603.617,83.8792 609.95,84.5459 616.5,84.5C 619.279,84.2786 621.946,84.612 624.5,85.5C 626.265,86.4614 628.265,86.7947 630.5,86.5C 635.665,87.1106 640.832,87.7772 646,88.5C 648.898,88.3632 651.731,87.8632 654.5,87C 675.843,79.3269 697.177,71.6602 718.5,64C 729.406,60.6904 740.406,57.8571 751.5,55.5C 755.078,55.4512 758.411,54.7846 761.5,53.5C 783.764,48.1367 806.098,48.3034 828.5,54C 832.792,55.3957 836.292,57.8957 839,61.5C 839.667,63.5 839.667,65.5 839,67.5C 826.901,73.9244 816.234,82.2577 807,92.5C 791.668,116.92 794.835,138.753 816.5,158C 838.294,171.791 858.961,187.125 878.5,204C 913.472,237.972 948.139,272.305 982.5,307C 994.698,317.251 1007.36,326.751 1020.5,335.5C 1020.97,336.906 1021.97,337.573 1023.5,337.5C 1033.11,342.307 1042.78,347.14 1052.5,352C 1056.02,353.734 1059.68,354.401 1063.5,354C 1065.67,353.167 1067.17,351.667 1068,349.5C 1071.3,340.429 1074.47,331.429 1077.5,322.5C 1078.92,320.485 1079.59,318.152 1079.5,315.5C 1080.65,311.363 1081.65,307.196 1082.5,303C 1082.51,300.7 1082.01,298.534 1081,296.5C 1072.82,290.507 1064.99,284.174 1057.5,277.5C 1057.17,276.5 1056.5,275.833 1055.5,275.5C 1050.89,272.564 1046.89,268.898 1043.5,264.5C 1043.17,263.5 1042.5,262.833 1041.5,262.5C 1037.77,259.769 1034.77,256.436 1032.5,252.5C 1032.17,251.5 1031.5,250.833 1030.5,250.5C 1001.72,214.651 987.715,173.484 988.5,127C 988.539,120.453 988.872,113.953 989.5,107.5C 990.725,102.71 991.392,97.7105 991.5,92.5C 993.274,81.3938 996.274,70.7272 1000.5,60.5C 1001.93,59.2196 1002.6,57.5529 1002.5,55.5C 1004.66,49.8489 1007.33,44.5156 1010.5,39.5C 1011.91,39.0269 1012.57,38.0269 1012.5,36.5C 1017.66,29.0429 1024.33,27.5429 1032.5,32C 1035.11,33.9384 1036.94,36.4384 1038,39.5C 1040.97,47.715 1043.47,56.0483 1045.5,64.5 Z M 405.5,332.5 C 406.531,333.249 407.698,333.915 409,334.5C 409.399,334.272 409.565,333.938 409.5,333.5C 434.919,338.105 459.919,344.438 484.5,352.5C 486.792,354.267 489.458,355.267 492.5,355.5C 546.04,376.092 594.374,405.092 637.5,442.5C 637.5,443.833 638.167,444.5 639.5,444.5C 641.549,447.55 644.216,449.883 647.5,451.5C 647.5,452.833 648.167,453.5 649.5,453.5C 655.833,460.5 662.5,467.167 669.5,473.5C 669.5,474.833 670.167,475.5 671.5,475.5C 679.155,485.153 687.155,494.486 695.5,503.5C 695.427,505.027 696.094,506.027 697.5,506.5C 725.222,543.598 751.722,581.598 777,620.5C 782.697,628.351 788.53,636.018 794.5,643.5C 794.427,645.027 795.094,646.027 796.5,646.5C 796.5,647.167 796.833,647.5 797.5,647.5C 797.427,649.027 798.094,650.027 799.5,650.5C 810.109,664.775 821.442,678.442 833.5,691.5C 833.427,693.027 834.094,694.027 835.5,694.5C 838.833,698.5 842.5,702.167 846.5,705.5C 846.5,706.833 847.167,707.5 848.5,707.5C 848.5,708.833 849.167,709.5 850.5,709.5C 850.5,710.833 851.167,711.5 852.5,711.5C 852.5,712.167 852.833,712.5 853.5,712.5C 854.5,715.5 856.5,717.5 859.5,718.5C 863.167,722.833 867.167,726.833 871.5,730.5C 871.973,731.906 872.973,732.573 874.5,732.5C 875.833,734.5 877.5,736.167 879.5,737.5C 879.973,738.906 880.973,739.573 882.5,739.5C 885.474,742.138 888.474,744.805 891.5,747.5C 891.973,748.906 892.973,749.573 894.5,749.5C 903.244,757.238 912.577,764.238 922.5,770.5C 920.5,771.167 918.5,771.833 916.5,772.5C 895.472,773.952 874.472,773.619 853.5,771.5C 852.469,770.751 851.302,770.085 850,769.5C 849.601,769.728 849.435,770.062 849.5,770.5C 830.149,767.439 811.816,761.272 794.5,752C 767.826,731.669 740.826,711.836 713.5,692.5C 713.027,691.094 712.027,690.427 710.5,690.5C 701.719,683.392 692.386,677.058 682.5,671.5C 682.027,670.094 681.027,669.427 679.5,669.5C 663.553,658.691 646.553,649.691 628.5,642.5C 626.162,640.96 623.495,640.294 620.5,640.5C 616.167,639.167 611.833,639.167 607.5,640.5C 605.62,640.229 604.287,640.896 603.5,642.5C 600.444,644.263 598.611,646.93 598,650.5C 596.721,667.723 600.888,683.39 610.5,697.5C 610.229,699.38 610.896,700.713 612.5,701.5C 616.812,708.319 620.478,715.485 623.5,723C 623.044,728.424 620.71,733.257 616.5,737.5C 614.973,737.427 613.973,738.094 613.5,739.5C 598.552,746.478 582.885,748.311 566.5,745C 559.682,744.07 553.016,742.57 546.5,740.5C 544.786,739.262 542.786,738.595 540.5,738.5C 527.451,733.476 515.118,727.143 503.5,719.5C 503.027,718.094 502.027,717.427 500.5,717.5C 480.997,704.008 462.33,689.341 444.5,673.5C 443.738,671.738 442.404,670.738 440.5,670.5C 435.167,664.5 429.5,658.833 423.5,653.5C 423.573,651.973 422.906,650.973 421.5,650.5C 419.5,647.833 417.167,645.5 414.5,643.5C 414.573,641.973 413.906,640.973 412.5,640.5C 359.58,575.633 325.747,501.633 311,418.5C 309.873,410.443 308.706,402.443 307.5,394.5C 307.81,391.287 307.477,388.287 306.5,385.5C 306.817,381.298 306.483,377.298 305.5,373.5C 305.252,364.46 305.585,355.46 306.5,346.5C 308.808,342.192 312.142,338.858 316.5,336.5C 319.428,336.435 322.095,335.768 324.5,334.5C 351.384,329.973 378.384,329.306 405.5,332.5 Z M 850.5,363.5 C 853.412,363.745 856.412,363.745 859.5,363.5C 876.146,365.599 891.146,371.599 904.5,381.5C 904.973,382.906 905.973,383.573 907.5,383.5C 907.833,384.5 908.5,385.167 909.5,385.5C 909.973,386.906 910.973,387.573 912.5,387.5C 914.86,390.527 917.527,393.194 920.5,395.5C 921.585,397.587 923.251,398.92 925.5,399.5C 942.449,417.769 957.449,437.436 970.5,458.5C 970.427,460.027 971.094,461.027 972.5,461.5C 977.129,469.519 981.295,477.852 985,486.5C 989.718,496.334 987.552,504.167 978.5,510C 952.204,524.365 927.537,522.198 904.5,503.5C 904.027,502.094 903.027,501.427 901.5,501.5C 893.011,494.038 887.011,485.038 883.5,474.5C 883.802,471.941 883.468,469.607 882.5,467.5C 882.324,456.232 883.324,445.066 885.5,434C 885.193,430.624 884.526,427.457 883.5,424.5C 883.598,422.447 882.931,420.78 881.5,419.5C 876.888,412.057 870.555,406.557 862.5,403C 854.197,400.278 845.864,399.111 837.5,399.5C 832.763,398.26 828.43,396.26 824.5,393.5C 824.167,392.5 823.5,391.833 822.5,391.5C 820.086,385.784 820.919,380.451 825,375.5C 831.903,368.142 840.403,364.142 850.5,363.5 Z M 849.5,424.5 C 854.416,428.562 856.416,433.895 855.5,440.5C 854.326,441.514 853.66,442.847 853.5,444.5C 845.752,452.441 837.919,452.441 830,444.5C 825.458,435.755 827.291,428.755 835.5,423.5C 840.286,422.075 844.952,422.408 849.5,424.5 Z"/></g>
<g><path style="opacity:0.318" fill="#4c6afe" d="M 1012.5,36.5 C 1012.57,38.0269 1011.91,39.0269 1010.5,39.5C 1010.43,37.9731 1011.09,36.9731 1012.5,36.5 Z"/></g>
<g><path style="opacity:0.375" fill="#4c6afe" d="M 761.5,53.5 C 758.411,54.7846 755.078,55.4512 751.5,55.5C 754.544,53.9886 757.878,53.322 761.5,53.5 Z"/></g>
<g><path style="opacity:0.341" fill="#4c6afe" d="M 1002.5,55.5 C 1002.6,57.5529 1001.93,59.2196 1000.5,60.5C 1000.4,58.4471 1001.07,56.7804 1002.5,55.5 Z"/></g>
<g><path style="opacity:0.36" fill="#4c6afe" d="M 1045.5,64.5 C 1047.27,66.7916 1048.27,69.4582 1048.5,72.5C 1046.73,70.2084 1045.73,67.5418 1045.5,64.5 Z"/></g>
<g><path style="opacity:0.265" fill="#4c6afe" d="M 555.5,81.5 C 560.5,80.1667 565.5,80.1667 570.5,81.5C 565.711,81.6351 560.711,81.6351 555.5,81.5 Z"/></g>
<g><path style="opacity:0.388" fill="#4c6afe" d="M 529.5,82.5 C 526.038,83.4816 522.371,83.815 518.5,83.5C 521.897,82.8018 525.397,82.1352 529,81.5C 529.399,81.7284 529.565,82.0618 529.5,82.5 Z"/></g>
<g><path style="opacity:0.366" fill="#4c6afe" d="M 517.5,83.5 C 512.04,84.7373 506.373,85.404 500.5,85.5C 505.875,84.3223 511.375,83.3223 517,82.5C 517.399,82.7284 517.565,83.0618 517.5,83.5 Z"/></g>
<g><path style="opacity:0.374" fill="#4c6afe" d="M 597.5,82.5 C 604.05,82.4541 610.383,83.1208 616.5,84.5C 609.95,84.5459 603.617,83.8792 597.5,82.5 Z"/></g>
<g><path style="opacity:0.368" fill="#4c6afe" d="M 630.5,86.5 C 628.265,86.7947 626.265,86.4614 624.5,85.5C 624.435,85.0618 624.601,84.7284 625,84.5C 626.948,85.1094 628.782,85.776 630.5,86.5 Z"/></g>
<g><path style="opacity:0.371" fill="#4c6afe" d="M 991.5,92.5 C 991.392,97.7105 990.725,102.71 989.5,107.5C 989.302,102.25 989.969,97.2502 991.5,92.5 Z"/></g>
<g><path style="opacity:0.388" fill="#4c6afe" d="M 1062.5,92.5 C 1064.03,92.427 1065.03,93.0937 1065.5,94.5C 1063.97,94.573 1062.97,93.9063 1062.5,92.5 Z"/></g>
<g><path style="opacity:0.341" fill="#4c6afe" d="M 432.5,102.5 C 431.22,103.931 429.553,104.598 427.5,104.5C 428.78,103.069 430.447,102.402 432.5,102.5 Z"/></g>
<g><path style="opacity:0.435" fill="#4c6afe" d="M 1342.5,102.5 C 1342.17,103.5 1341.5,104.167 1340.5,104.5C 1340.5,103.167 1341.17,102.5 1342.5,102.5 Z"/></g>
<g><path style="opacity:0.408" fill="#4c6afe" d="M 1368.5,111.5 C 1369.93,112.78 1370.6,114.447 1370.5,116.5C 1368.79,115.365 1368.12,113.698 1368.5,111.5 Z"/></g>
<g><path style="opacity:0.416" fill="#4c6afe" d="M 1325.5,119.5 C 1324.83,120.833 1323.83,121.833 1322.5,122.5C 1322.5,120.5 1323.5,119.5 1325.5,119.5 Z"/></g>
<g><path style="opacity:0.358" fill="#4c6afe" d="M 1370.5,129.5 C 1369.95,136.036 1368.95,142.369 1367.5,148.5C 1367.74,142.816 1368.24,137.149 1369,131.5C 1369.28,130.584 1369.78,129.918 1370.5,129.5 Z"/></g>
<g><path style="opacity:0.388" fill="#4c6afe" d="M 349.5,151.5 C 349.027,152.906 348.027,153.573 346.5,153.5C 346.973,152.094 347.973,151.427 349.5,151.5 Z"/></g>
<g><path style="opacity:0.318" fill="#4c6afe" d="M 1194.5,160.5 C 1194.03,161.906 1193.03,162.573 1191.5,162.5C 1191.97,161.094 1192.97,160.427 1194.5,160.5 Z"/></g>
<g><path style="opacity:0.388" fill="#4c6afe" d="M 298.5,205.5 C 298.573,207.027 297.906,208.027 296.5,208.5C 296.427,206.973 297.094,205.973 298.5,205.5 Z"/></g>
<g><path style="opacity:0.435" fill="#4c6afe" d="M 1350.5,208.5 C 1350.6,210.553 1349.93,212.22 1348.5,213.5C 1348.4,211.447 1349.07,209.78 1350.5,208.5 Z"/></g>
<g><path style="opacity:0.341" fill="#4c6afe" d="M 1030.5,250.5 C 1031.5,250.833 1032.17,251.5 1032.5,252.5C 1031.17,252.5 1030.5,251.833 1030.5,250.5 Z"/></g>
<g><path style="opacity:0.36" fill="#4c6afe" d="M 269.5,251.5 C 269.34,253.153 268.674,254.486 267.5,255.5C 267.229,253.62 267.896,252.287 269.5,251.5 Z"/></g>
<g><path style="opacity:0.388" fill="#4c6afe" d="M 1320.5,255.5 C 1320.57,257.027 1319.91,258.027 1318.5,258.5C 1318.43,256.973 1319.09,255.973 1320.5,255.5 Z"/></g>
<g><path style="opacity:0.435" fill="#4c6afe" d="M 1041.5,262.5 C 1042.5,262.833 1043.17,263.5 1043.5,264.5C 1042.17,264.5 1041.5,263.833 1041.5,262.5 Z"/></g>
<g><path style="opacity:0.36" fill="#4c6afe" d="M 262.5,265.5 C 262.34,267.153 261.674,268.486 260.5,269.5C 260.229,267.62 260.896,266.287 262.5,265.5 Z"/></g>
<g><path style="opacity:0.341" fill="#4c6afe" d="M 1310.5,266.5 C 1310.17,267.5 1309.5,268.167 1308.5,268.5C 1308.5,267.167 1309.17,266.5 1310.5,266.5 Z"/></g>
<g><path style="opacity:0.435" fill="#4c6afe" d="M 1055.5,275.5 C 1056.5,275.833 1057.17,276.5 1057.5,277.5C 1056.17,277.5 1055.5,276.833 1055.5,275.5 Z"/></g>
<g><path style="opacity:0.36" fill="#4c6afe" d="M 1217.5,314.5 C 1211.8,316.561 1205.8,317.561 1199.5,317.5C 1205.3,316.089 1211.3,315.089 1217.5,314.5 Z"/></g>
<g><path style="opacity:0.388" fill="#4c6afe" d="M 1079.5,315.5 C 1079.59,318.152 1078.92,320.485 1077.5,322.5C 1077.41,319.848 1078.08,317.515 1079.5,315.5 Z"/></g>
<g><path style="opacity:0.353" fill="#4c6afe" d="M 242.5,318.5 C 242.279,321.067 241.612,323.401 240.5,325.5C 240.171,322.772 240.837,320.438 242.5,318.5 Z"/></g>
<g><path style="opacity:0.373" fill="#4c6afe" d="M 240.5,325.5 C 240.435,328.428 239.768,331.095 238.5,333.5C 238.294,330.505 238.96,327.838 240.5,325.5 Z"/></g>
<g><path style="opacity:0.36" fill="#4c6afe" d="M 405.5,332.5 C 407.099,332.232 408.432,332.566 409.5,333.5C 409.565,333.938 409.399,334.272 409,334.5C 407.698,333.915 406.531,333.249 405.5,332.5 Z"/></g>
<g><path style="opacity:0.373" fill="#4c6afe" d="M 324.5,334.5 C 322.095,335.768 319.428,336.435 316.5,336.5C 318.838,334.96 321.505,334.294 324.5,334.5 Z"/></g>
<g><path style="opacity:0.459" fill="#4c6afe" d="M 1020.5,335.5 C 1022.03,335.427 1023.03,336.094 1023.5,337.5C 1021.97,337.573 1020.97,336.906 1020.5,335.5 Z"/></g>
<g><path style="opacity:0.328" fill="#4c6afe" d="M 306.5,346.5 C 305.585,355.46 305.252,364.46 305.5,373.5C 304.343,365.344 304.177,357.01 305,348.5C 305.278,347.584 305.778,346.918 306.5,346.5 Z"/></g>
<g><path style="opacity:0.332" fill="#4c6afe" d="M 484.5,352.5 C 487.542,352.733 490.208,353.733 492.5,355.5C 489.458,355.267 486.792,354.267 484.5,352.5 Z"/></g>
<g><path style="opacity:0.429" fill="#4c6afe" d="M 859.5,363.5 C 856.412,363.745 853.412,363.745 850.5,363.5C 853.5,362.167 856.5,362.167 859.5,363.5 Z"/></g>
<g><path style="opacity:0.388" fill="#4c6afe" d="M 232.5,367.5 C 232.784,369.415 232.451,371.081 231.5,372.5C 231.062,372.565 230.728,372.399 230.5,372C 231.099,370.378 231.766,368.878 232.5,367.5 Z"/></g>
<g><path style="opacity:0.36" fill="#4c6afe" d="M 231.5,373.5 C 231.81,376.713 231.477,379.713 230.5,382.5C 230.389,381.883 230.056,381.383 229.5,381C 230.123,378.393 230.79,375.893 231.5,373.5 Z"/></g>
<g><path style="opacity:0.356" fill="#4c6afe" d="M 305.5,373.5 C 306.483,377.298 306.817,381.298 306.5,385.5C 305.802,382.103 305.135,378.603 304.5,375C 305.056,374.617 305.389,374.117 305.5,373.5 Z"/></g>
<g><path style="opacity:0.368" fill="#4c6afe" d="M 1184.5,379.5 C 1184.56,384.076 1183.9,388.409 1182.5,392.5C 1182.44,387.924 1183.1,383.591 1184.5,379.5 Z"/></g>
<g><path style="opacity:0.318" fill="#4c6afe" d="M 904.5,381.5 C 906.027,381.427 907.027,382.094 907.5,383.5C 905.973,383.573 904.973,382.906 904.5,381.5 Z"/></g>
<g><path style="opacity:0.414" fill="#4c6afe" d="M 230.5,382.5 C 230.895,388.762 230.228,394.762 228.5,400.5C 228.523,394.288 229.19,388.288 230.5,382.5 Z"/></g>
<g><path style="opacity:0.388" fill="#4c6afe" d="M 306.5,385.5 C 307.477,388.287 307.81,391.287 307.5,394.5C 306.79,392.107 306.123,389.607 305.5,387C 306.056,386.617 306.389,386.117 306.5,385.5 Z"/></g>
<g><path style="opacity:0.388" fill="#4c6afe" d="M 909.5,385.5 C 911.027,385.427 912.027,386.094 912.5,387.5C 910.973,387.573 909.973,386.906 909.5,385.5 Z"/></g>
<g><path style="opacity:0.341" fill="#4c6afe" d="M 822.5,391.5 C 823.5,391.833 824.167,392.5 824.5,393.5C 823.167,393.5 822.5,392.833 822.5,391.5 Z"/></g>
<g><path style="opacity:0.388" fill="#4c6afe" d="M 920.5,395.5 C 922.749,396.08 924.415,397.413 925.5,399.5C 923.251,398.92 921.585,397.587 920.5,395.5 Z"/></g>
<g><path style="opacity:0.388" fill="#4c6afe" d="M 881.5,419.5 C 882.931,420.78 883.598,422.447 883.5,424.5C 882.069,423.22 881.402,421.553 881.5,419.5 Z"/></g>
<g><path style="opacity:0.347" fill="#4c6afe" d="M 849.5,424.5 C 844.952,422.408 840.286,422.075 835.5,423.5C 839.587,421.029 843.92,420.863 848.5,423C 849.056,423.383 849.389,423.883 849.5,424.5 Z"/></g>
<g><path style="opacity:0.388" fill="#4c6afe" d="M 228.5,435.5 C 230.126,441.928 230.793,448.595 230.5,455.5C 229.064,449.053 228.397,442.386 228.5,435.5 Z"/></g>
<g><path style="opacity:0.304" fill="#4c6afe" d="M 855.5,440.5 C 855.771,442.38 855.104,443.713 853.5,444.5C 853.66,442.847 854.326,441.514 855.5,440.5 Z"/></g>
<g><path style="opacity:0.435" fill="#4c6afe" d="M 637.5,442.5 C 638.5,442.833 639.167,443.5 639.5,444.5C 638.167,444.5 637.5,443.833 637.5,442.5 Z"/></g>
<g><path style="opacity:0.435" fill="#4c6afe" d="M 647.5,451.5 C 648.5,451.833 649.167,452.5 649.5,453.5C 648.167,453.5 647.5,452.833 647.5,451.5 Z"/></g>
<g><path style="opacity:0.36" fill="#4c6afe" d="M 230.5,456.5 C 231.477,459.287 231.81,462.287 231.5,465.5C 230.795,462.772 230.128,459.939 229.5,457C 229.728,456.601 230.062,456.435 230.5,456.5 Z"/></g>
<g><path style="opacity:0.318" fill="#4c6afe" d="M 970.5,458.5 C 971.906,458.973 972.573,459.973 972.5,461.5C 971.094,461.027 970.427,460.027 970.5,458.5 Z"/></g>
<g><path style="opacity:0.368" fill="#4c6afe" d="M 231.5,466.5 C 232.461,468.265 232.795,470.265 232.5,472.5C 231.776,470.782 231.109,468.948 230.5,467C 230.728,466.601 231.062,466.435 231.5,466.5 Z"/></g>
<g><path style="opacity:0.388" fill="#4c6afe" d="M 882.5,467.5 C 883.468,469.607 883.802,471.941 883.5,474.5C 882.784,472.444 882.117,470.277 881.5,468C 881.728,467.601 882.062,467.435 882.5,467.5 Z"/></g>
<g><path style="opacity:0.435" fill="#4c6afe" d="M 669.5,473.5 C 670.5,473.833 671.167,474.5 671.5,475.5C 670.167,475.5 669.5,474.833 669.5,473.5 Z"/></g>
<g><path style="opacity:0.388" fill="#4c6afe" d="M 901.5,501.5 C 903.027,501.427 904.027,502.094 904.5,503.5C 902.973,503.573 901.973,502.906 901.5,501.5 Z"/></g>
<g><path style="opacity:0.388" fill="#4c6afe" d="M 695.5,503.5 C 696.906,503.973 697.573,504.973 697.5,506.5C 696.094,506.027 695.427,505.027 695.5,503.5 Z"/></g>
<g><path style="opacity:0.341" fill="#4c6afe" d="M 239.5,515.5 C 240.768,517.905 241.435,520.572 241.5,523.5C 239.96,521.162 239.294,518.495 239.5,515.5 Z"/></g>
<g><path style="opacity:0.388" fill="#4c6afe" d="M 1145.5,526.5 C 1145.6,528.553 1144.93,530.22 1143.5,531.5C 1143.4,529.447 1144.07,527.78 1145.5,526.5 Z"/></g>
<g><path style="opacity:0.388" fill="#4c6afe" d="M 247.5,546.5 C 248.924,548.515 249.59,550.848 249.5,553.5C 248.076,551.485 247.41,549.152 247.5,546.5 Z"/></g>
<g><path style="opacity:0.388" fill="#4c6afe" d="M 1107.5,600.5 C 1107.57,602.027 1106.91,603.027 1105.5,603.5C 1105.43,601.973 1106.09,600.973 1107.5,600.5 Z"/></g>
<g><path style="opacity:0.388" fill="#4c6afe" d="M 412.5,640.5 C 413.906,640.973 414.573,641.973 414.5,643.5C 413.094,643.027 412.427,642.027 412.5,640.5 Z"/></g>
<g><path style="opacity:0.36" fill="#4c6afe" d="M 607.5,640.5 C 606.486,641.674 605.153,642.34 603.5,642.5C 604.287,640.896 605.62,640.229 607.5,640.5 Z"/></g>
<g><path style="opacity:0.373" fill="#4c6afe" d="M 620.5,640.5 C 623.495,640.294 626.162,640.96 628.5,642.5C 625.572,642.435 622.905,641.768 620.5,640.5 Z"/></g>
<g><path style="opacity:0.388" fill="#4c6afe" d="M 794.5,643.5 C 795.906,643.973 796.573,644.973 796.5,646.5C 795.094,646.027 794.427,645.027 794.5,643.5 Z"/></g>
<g><path style="opacity:0.388" fill="#4c6afe" d="M 797.5,647.5 C 798.906,647.973 799.573,648.973 799.5,650.5C 798.094,650.027 797.427,649.027 797.5,647.5 Z"/></g>
<g><path style="opacity:0.388" fill="#4c6afe" d="M 421.5,650.5 C 422.906,650.973 423.573,651.973 423.5,653.5C 422.094,653.027 421.427,652.027 421.5,650.5 Z"/></g>
<g><path style="opacity:0.388" fill="#4c6afe" d="M 295.5,653.5 C 296.906,653.973 297.573,654.973 297.5,656.5C 296.094,656.027 295.427,655.027 295.5,653.5 Z"/></g>
<g><path style="opacity:0.388" fill="#4c6afe" d="M 1056.5,666.5 C 1056.57,668.027 1055.91,669.027 1054.5,669.5C 1054.43,667.973 1055.09,666.973 1056.5,666.5 Z"/></g>
<g><path style="opacity:0.388" fill="#4c6afe" d="M 679.5,669.5 C 681.027,669.427 682.027,670.094 682.5,671.5C 680.973,671.573 679.973,670.906 679.5,669.5 Z"/></g>
<g><path style="opacity:0.388" fill="#4c6afe" d="M 440.5,670.5 C 442.404,670.738 443.738,671.738 444.5,673.5C 442.596,673.262 441.262,672.262 440.5,670.5 Z"/></g>
<g><path style="opacity:0.388" fill="#4c6afe" d="M 307.5,671.5 C 308.906,671.973 309.573,672.973 309.5,674.5C 308.094,674.027 307.427,673.027 307.5,671.5 Z"/></g>
<g><path style="opacity:0.318" fill="#4c6afe" d="M 309.5,674.5 C 310.906,674.973 311.573,675.973 311.5,677.5C 310.094,677.027 309.427,676.027 309.5,674.5 Z"/></g>
<g><path style="opacity:0.341" fill="#4c6afe" d="M 1039.5,686.5 C 1039.17,687.5 1038.5,688.167 1037.5,688.5C 1037.5,687.167 1038.17,686.5 1039.5,686.5 Z"/></g>
<g><path style="opacity:0.388" fill="#4c6afe" d="M 710.5,690.5 C 712.027,690.427 713.027,691.094 713.5,692.5C 711.973,692.573 710.973,691.906 710.5,690.5 Z"/></g>
<g><path style="opacity:0.388" fill="#4c6afe" d="M 833.5,691.5 C 834.906,691.973 835.573,692.973 835.5,694.5C 834.094,694.027 833.427,693.027 833.5,691.5 Z"/></g>
<g><path style="opacity:0.388" fill="#4c6afe" d="M 326.5,696.5 C 327.906,696.973 328.573,697.973 328.5,699.5C 327.094,699.027 326.427,698.027 326.5,696.5 Z"/></g>
<g><path style="opacity:0.36" fill="#4c6afe" d="M 610.5,697.5 C 611.674,698.514 612.34,699.847 612.5,701.5C 610.896,700.713 610.229,699.38 610.5,697.5 Z"/></g>
<g><path style="opacity:0.435" fill="#4c6afe" d="M 846.5,705.5 C 847.5,705.833 848.167,706.5 848.5,707.5C 847.167,707.5 846.5,706.833 846.5,705.5 Z"/></g>
<g><path style="opacity:0.435" fill="#4c6afe" d="M 848.5,707.5 C 849.5,707.833 850.167,708.5 850.5,709.5C 849.167,709.5 848.5,708.833 848.5,707.5 Z"/></g>
<g><path style="opacity:0.435" fill="#4c6afe" d="M 850.5,709.5 C 851.5,709.833 852.167,710.5 852.5,711.5C 851.167,711.5 850.5,710.833 850.5,709.5 Z"/></g>
<g><path style="opacity:0.401" fill="#4c6afe" d="M 853.5,712.5 C 855.833,714.167 857.833,716.167 859.5,718.5C 856.5,717.5 854.5,715.5 853.5,712.5 Z"/></g>
<g><path style="opacity:0.388" fill="#4c6afe" d="M 500.5,717.5 C 502.027,717.427 503.027,718.094 503.5,719.5C 501.973,719.573 500.973,718.906 500.5,717.5 Z"/></g>
<g><path style="opacity:0.388" fill="#4c6afe" d="M 345.5,718.5 C 347.262,719.262 348.262,720.596 348.5,722.5C 346.738,721.738 345.738,720.404 345.5,718.5 Z"/></g>
<g><path style="opacity:0.388" fill="#4c6afe" d="M 871.5,730.5 C 873.027,730.427 874.027,731.094 874.5,732.5C 872.973,732.573 871.973,731.906 871.5,730.5 Z"/></g>
<g><path style="opacity:0.388" fill="#4c6afe" d="M 616.5,737.5 C 616.027,738.906 615.027,739.573 613.5,739.5C 613.973,738.094 614.973,737.427 616.5,737.5 Z"/></g>
<g><path style="opacity:0.388" fill="#4c6afe" d="M 879.5,737.5 C 881.027,737.427 882.027,738.094 882.5,739.5C 880.973,739.573 879.973,738.906 879.5,737.5 Z"/></g>
<g><path style="opacity:0.368" fill="#4c6afe" d="M 540.5,738.5 C 542.786,738.595 544.786,739.262 546.5,740.5C 544.102,740.741 542.102,740.074 540.5,738.5 Z"/></g>
<g><path style="opacity:0.36" fill="#4c6afe" d="M 1109.5,739.5 C 1111.38,739.229 1112.71,739.896 1113.5,741.5C 1111.85,741.34 1110.51,740.674 1109.5,739.5 Z"/></g>
<g><path style="opacity:0.435" fill="#4c6afe" d="M 373.5,746.5 C 374.5,746.833 375.167,747.5 375.5,748.5C 374.167,748.5 373.5,747.833 373.5,746.5 Z"/></g>
<g><path style="opacity:0.388" fill="#4c6afe" d="M 891.5,747.5 C 893.027,747.427 894.027,748.094 894.5,749.5C 892.973,749.573 891.973,748.906 891.5,747.5 Z"/></g>
<g><path style="opacity:0.36" fill="#4c6afe" d="M 853.5,771.5 C 851.901,771.768 850.568,771.434 849.5,770.5C 849.435,770.062 849.601,769.728 850,769.5C 851.302,770.085 852.469,770.751 853.5,771.5 Z"/></g>
<g><path style="opacity:0.388" fill="#4c6afe" d="M 922.5,770.5 C 923.043,770.56 923.376,770.893 923.5,771.5C 921.257,772.474 918.924,772.808 916.5,772.5C 918.5,771.833 920.5,771.167 922.5,770.5 Z"/></g>
<g><path style="opacity:0.388" fill="#4c6afe" d="M 1123.5,784.5 C 1123.03,785.906 1122.03,786.573 1120.5,786.5C 1120.97,785.094 1121.97,784.427 1123.5,784.5 Z"/></g>
<g><path style="opacity:0.366" fill="#4c6afe" d="M 1100.5,793.5 C 1095.13,795.452 1089.46,796.452 1083.5,796.5C 1088.95,794.98 1094.61,793.98 1100.5,793.5 Z"/></g>
<g><path style="opacity:0.328" fill="#4c6afe" d="M 988.5,794.5 C 990.735,794.205 992.735,794.539 994.5,795.5C 994.565,795.938 994.399,796.272 994,796.5C 992.052,795.891 990.218,795.224 988.5,794.5 Z"/></g>
<g><path style="opacity:0.388" fill="#4c6afe" d="M 995.5,795.5 C 998.059,795.198 1000.39,795.532 1002.5,796.5C 1002.57,796.938 1002.4,797.272 1002,797.5C 999.723,796.883 997.556,796.216 995.5,795.5 Z"/></g>
<g><path style="opacity:0.388" fill="#4c6afe" d="M 907.5,804.5 C 907.027,805.906 906.027,806.573 904.5,806.5C 904.973,805.094 905.973,804.427 907.5,804.5 Z"/></g>
<g><path style="opacity:0.318" fill="#4c6afe" d="M 467.5,815.5 C 469.027,815.427 470.027,816.094 470.5,817.5C 468.973,817.573 467.973,816.906 467.5,815.5 Z"/></g>
<g><path style="opacity:0.36" fill="#4c6afe" d="M 482.5,823.5 C 484.153,823.66 485.486,824.326 486.5,825.5C 484.62,825.771 483.287,825.104 482.5,823.5 Z"/></g>
<g><path style="opacity:0.373" fill="#4c6afe" d="M 505.5,834.5 C 508.241,834.707 510.574,835.707 512.5,837.5C 509.759,837.293 507.426,836.293 505.5,834.5 Z"/></g>
<g><path style="opacity:0.328" fill="#4c6afe" d="M 552.5,851.5 C 554.786,851.595 556.786,852.262 558.5,853.5C 556.102,853.741 554.102,853.074 552.5,851.5 Z"/></g>
<g><path style="opacity:0.328" fill="#4c6afe" d="M 810.5,851.5 C 808.898,853.074 806.898,853.741 804.5,853.5C 806.214,852.262 808.214,851.595 810.5,851.5 Z"/></g>
<g><path style="opacity:0.36" fill="#4c6afe" d="M 765.5,861.5 C 764.469,862.249 763.302,862.915 762,863.5C 761.601,863.272 761.435,862.938 761.5,862.5C 762.568,861.566 763.901,861.232 765.5,861.5 Z"/></g>
<g><path style="opacity:0.377" fill="#4c6afe" d="M 598.5,862.5 C 602.733,862.539 606.733,863.205 610.5,864.5C 606.236,864.656 602.236,863.989 598.5,862.5 Z"/></g>
<g><path style="opacity:0.388" fill="#4c6afe" d="M 610.5,864.5 C 615.731,864.444 620.731,865.111 625.5,866.5C 620.269,866.556 615.269,865.889 610.5,864.5 Z"/></g>
</svg>
