<?xml version="1.0" encoding="UTF-8"?>
<!DOCTYPE svg PUBLIC "-//W3C//DTD SVG 1.1//EN" "http://www.w3.org/Graphics/SVG/1.1/DTD/svg11.dtd">
<svg xmlns="http://www.w3.org/2000/svg" version="1.1" width="600px" height="338px" style="shape-rendering:geometricPrecision; text-rendering:geometricPrecision; image-rendering:optimizeQuality; fill-rule:evenodd; clip-rule:evenodd" xmlns:xlink="http://www.w3.org/1999/xlink">
<g><path style="opacity:0.998" fill="#289245" d="M 202.5,14.5 C 264.501,14.3333 326.501,14.5 388.5,15C 413.671,16.1638 431.837,27.9971 443,50.5C 445.483,57.4436 447.483,64.4436 449,71.5C 449.667,134.833 449.667,198.167 449,261.5C 446.006,287.823 432.339,306.156 408,316.5C 401.684,318.682 395.184,319.848 388.5,320C 326.5,320.667 264.5,320.667 202.5,320C 167.56,317.062 147.394,298.229 142,263.5C 141.333,199.5 141.333,135.5 142,71.5C 147.566,36.7618 167.733,17.7618 202.5,14.5 Z"/></g>
<g><path style="opacity:1" fill="#fdfefd" d="M 362.5,147.5 C 361.375,149.129 360.041,150.629 358.5,152C 357.563,152.692 356.897,152.525 356.5,151.5C 357.495,139.678 357.828,127.678 357.5,115.5C 359.167,115.5 360.833,115.5 362.5,115.5C 362.5,126.167 362.5,136.833 362.5,147.5 Z"/></g>
<g><path style="opacity:1" fill="#9dceaa" d="M 362.5,147.5 C 362.5,136.833 362.5,126.167 362.5,115.5C 360.833,115.5 359.167,115.5 357.5,115.5C 357.828,127.678 357.495,139.678 356.5,151.5C 356.5,139.167 356.5,126.833 356.5,114.5C 358.833,114.5 361.167,114.5 363.5,114.5C 363.828,125.679 363.495,136.679 362.5,147.5 Z"/></g>
<g><path style="opacity:1" fill="#b1d7bc" d="M 373.5,140.5 C 373.5,132.167 373.5,123.833 373.5,115.5C 371.833,115.5 370.167,115.5 368.5,115.5C 368.173,125.015 368.506,134.348 369.5,143.5C 369.44,144.043 369.107,144.376 368.5,144.5C 367.501,134.522 367.168,124.522 367.5,114.5C 369.833,114.5 372.167,114.5 374.5,114.5C 374.826,123.349 374.493,132.016 373.5,140.5 Z"/></g>
<g><path style="opacity:1" fill="#fafcfb" d="M 373.5,140.5 C 372.167,141.5 370.833,142.5 369.5,143.5C 368.506,134.348 368.173,125.015 368.5,115.5C 370.167,115.5 371.833,115.5 373.5,115.5C 373.5,123.833 373.5,132.167 373.5,140.5 Z"/></g>
<g><path style="opacity:1" fill="#f5f9f6" d="M 230.5,132.5 C 230.795,134.735 230.461,136.735 229.5,138.5C 204.502,129.909 186.669,137.575 176,161.5C 173.143,182.638 181.643,196.805 201.5,204C 212.472,205.832 222.472,203.665 231.5,197.5C 233.471,188.895 234.138,179.895 233.5,170.5C 224.833,170.5 216.167,170.5 207.5,170.5C 207.5,168.833 207.5,167.167 207.5,165.5C 217.833,165.5 228.167,165.5 238.5,165.5C 238.5,176.5 238.5,187.5 238.5,198.5C 232.337,205.014 224.671,208.681 215.5,209.5C 209.131,209.653 202.797,209.32 196.5,208.5C 179.168,201.862 170.168,189.195 169.5,170.5C 169.206,156.255 174.872,145.088 186.5,137C 200.386,128.835 215.053,127.335 230.5,132.5 Z"/></g>
<g><path style="opacity:1" fill="#bbdcc4" d="M 230.5,132.5 C 231.797,134.693 231.797,137.027 230.5,139.5C 229.893,139.376 229.56,139.043 229.5,138.5C 230.461,136.735 230.795,134.735 230.5,132.5 Z"/></g>
<g><path style="opacity:1" fill="#edf6ef" d="M 221.5,191.5 C 222.479,188.375 222.813,185.042 222.5,181.5C 217.5,181.5 212.5,181.5 207.5,181.5C 207.5,179.5 207.5,177.5 207.5,175.5C 214.5,175.5 221.5,175.5 228.5,175.5C 228.666,181.509 228.499,187.509 228,193.5C 224.818,196.596 220.984,198.429 216.5,199C 200.553,201.777 189.053,195.943 182,181.5C 176.778,156.607 186.778,142.607 212,139.5C 218.078,139.54 223.911,140.707 229.5,143C 231.619,145.218 231.952,147.718 230.5,150.5C 220.06,145.876 209.393,145.376 198.5,149C 185.896,157.926 183.063,169.426 190,183.5C 198.504,193.679 209.004,196.346 221.5,191.5 Z"/></g>
<g><path style="opacity:1" fill="#eef6f0" d="M 270.5,141.5 C 278.076,140.65 285.076,142.15 291.5,146C 290.654,148.18 289.154,149.68 287,150.5C 274.015,145.61 263.348,148.61 255,159.5C 254.333,161.5 253.667,163.5 253,165.5C 252.5,179.829 252.333,194.163 252.5,208.5C 250.5,208.5 248.5,208.5 246.5,208.5C 246.333,193.496 246.5,178.496 247,163.5C 251.186,152.143 259.02,144.81 270.5,141.5 Z"/></g>
<g><path style="opacity:1" fill="#f4f9f5" d="M 344.5,162.5 C 345.418,177.809 345.751,193.142 345.5,208.5C 343.833,208.5 342.167,208.5 340.5,208.5C 340.667,194.829 340.5,181.163 340,167.5C 334.066,151.059 322.566,145.226 305.5,150C 292.35,157.49 287.85,168.656 292,183.5C 297.114,198.138 307.28,204.138 322.5,201.5C 324.256,202.552 324.923,204.219 324.5,206.5C 303.965,210.994 290.965,202.994 285.5,182.5C 285.347,176.131 285.68,169.797 286.5,163.5C 293.277,146.263 305.943,139.43 324.5,143C 334.318,146.319 340.985,152.819 344.5,162.5 Z"/></g>
<g><path style="opacity:1" fill="#eff7f1" d="M 416.5,161.5 C 416.721,164.067 417.388,166.401 418.5,168.5C 420.727,192.086 410.227,205.419 387,208.5C 374.869,208.021 366.202,202.354 361,191.5C 360.37,189.097 361.203,187.263 363.5,186C 364.332,185.312 364.998,185.479 365.5,186.5C 368.972,194.057 374.639,199.057 382.5,201.5C 384.304,202.162 386.304,202.495 388.5,202.5C 391.527,202.713 394.193,202.047 396.5,200.5C 411.168,192.246 416.002,179.912 411,163.5C 403.33,150.247 392.164,145.747 377.5,150C 367.333,157.5 358.5,166.333 351,176.5C 350.333,173.5 350.333,170.5 351,167.5C 357.167,158.667 364.667,151.167 373.5,145C 388.743,139.269 401.909,142.435 413,154.5C 414.18,156.86 415.347,159.193 416.5,161.5 Z"/></g>
<g><path style="opacity:1" fill="#b1d7ba" d="M 273.5,152.5 C 271.898,154.074 269.898,154.741 267.5,154.5C 269.102,152.926 271.102,152.259 273.5,152.5 Z"/></g>
<g><path style="opacity:1" fill="#f8fbf9" d="M 273.5,152.5 C 276.909,152.249 280.242,152.583 283.5,153.5C 284.568,155.187 284.401,156.854 283,158.5C 278.494,158.145 273.994,158.645 269.5,160C 266.477,162.177 264.477,165.011 263.5,168.5C 262.505,181.323 262.171,194.323 262.5,207.5C 260.833,207.5 259.167,207.5 257.5,207.5C 257.5,193.833 257.5,180.167 257.5,166.5C 259.04,160.964 262.373,156.964 267.5,154.5C 269.898,154.741 271.898,154.074 273.5,152.5 Z"/></g>
<g><path style="opacity:1" fill="#f1f8f3" d="M 333.5,163.5 C 334.099,177.982 334.766,192.315 335.5,206.5C 334.082,208.308 332.082,208.975 329.5,208.5C 329.667,195.163 329.5,181.829 329,168.5C 327.18,163.512 323.68,160.512 318.5,159.5C 316.034,158.366 313.367,158.199 310.5,159C 309.944,159.383 309.611,159.883 309.5,160.5C 306.178,161.658 304.012,163.992 303,167.5C 302.333,172.833 302.333,178.167 303,183.5C 307.929,191.706 314.762,193.706 323.5,189.5C 324.461,191.265 324.795,193.265 324.5,195.5C 311.989,200.331 302.823,196.665 297,184.5C 292.165,170.325 296.332,159.825 309.5,153C 320.136,150.866 328.136,154.366 333.5,163.5 Z"/></g>
<g><path style="opacity:1" fill="#f1f8f3" d="M 383.5,152.5 C 403.315,153.392 411.148,163.726 407,183.5C 400.869,196.731 391.036,200.564 377.5,195C 373.302,191.129 370.302,186.462 368.5,181C 369.473,178.88 370.806,177.047 372.5,175.5C 374.456,182.245 378.456,187.411 384.5,191C 387.554,191.821 390.554,191.655 393.5,190.5C 395.817,188.684 397.984,186.684 400,184.5C 405.453,171.073 401.453,162.406 388,158.5C 384.447,158.684 381.281,159.85 378.5,162C 368.908,172.034 359.908,182.534 351.5,193.5C 350.158,189.752 350.325,186.085 352,182.5C 359.431,173.066 367.598,164.232 376.5,156C 378.925,154.787 381.259,153.621 383.5,152.5 Z"/></g>
<g><path style="opacity:1" fill="#7bbc8c" d="M 318.5,159.5 C 315.43,159.368 312.43,159.701 309.5,160.5C 309.611,159.883 309.944,159.383 310.5,159C 313.367,158.199 316.034,158.366 318.5,159.5 Z"/></g>
<g><path style="opacity:1" fill="#6eb580" d="M 416.5,161.5 C 418.163,163.438 418.829,165.772 418.5,168.5C 417.388,166.401 416.721,164.067 416.5,161.5 Z"/></g>
<g><path style="opacity:1" fill="#c6e2ce" d="M 333.5,163.5 C 334.268,164.263 334.768,165.263 335,166.5C 335.5,179.829 335.667,193.163 335.5,206.5C 334.766,192.315 334.099,177.982 333.5,163.5 Z"/></g>
<g><path style="opacity:1" fill="#b1d7bb" d="M 257.5,166.5 C 257.5,180.167 257.5,193.833 257.5,207.5C 259.167,207.5 260.833,207.5 262.5,207.5C 262.171,194.323 262.505,181.323 263.5,168.5C 263.5,181.833 263.5,195.167 263.5,208.5C 261.167,208.5 258.833,208.5 256.5,208.5C 256.171,194.323 256.504,180.323 257.5,166.5 Z"/></g>
<g><path style="opacity:1" fill="#c3e0cc" d="M 344.5,162.5 C 345.29,163.609 345.79,164.942 346,166.5C 346.827,180.673 346.661,194.673 345.5,208.5C 345.751,193.142 345.418,177.809 344.5,162.5 Z"/></g>
<g><path style="opacity:1" fill="#97caa5" d="M 238.5,198.5 C 238.5,187.5 238.5,176.5 238.5,165.5C 228.167,165.5 217.833,165.5 207.5,165.5C 207.5,167.167 207.5,168.833 207.5,170.5C 216.167,170.5 224.833,170.5 233.5,170.5C 234.138,179.895 233.471,188.895 231.5,197.5C 232.47,188.918 232.803,180.251 232.5,171.5C 223.833,171.5 215.167,171.5 206.5,171.5C 206.5,169.167 206.5,166.833 206.5,164.5C 217.5,164.5 228.5,164.5 239.5,164.5C 239.828,176.012 239.495,187.346 238.5,198.5 Z"/></g>
<g><path style="opacity:1" fill="#80bf91" d="M 286.5,163.5 C 285.68,169.797 285.347,176.131 285.5,182.5C 284.836,180.022 284.503,177.355 284.5,174.5C 284.294,170.531 284.961,166.865 286.5,163.5 Z"/></g>
<g><path style="opacity:1" fill="#64b179" d="M 207.5,181.5 C 212.5,181.5 217.5,181.5 222.5,181.5C 222.813,185.042 222.479,188.375 221.5,191.5C 221.5,188.5 221.5,185.5 221.5,182.5C 216.637,182.819 211.97,182.486 207.5,181.5 Z"/></g>
<g><path style="opacity:1" fill="#9acca7" d="M 323.5,189.5 C 323.56,188.957 323.893,188.624 324.5,188.5C 325.797,190.973 325.797,193.307 324.5,195.5C 324.795,193.265 324.461,191.265 323.5,189.5 Z"/></g>
<g><path style="opacity:1" fill="#a2d0ae" d="M 322.5,201.5 C 323.209,200.596 324.209,200.263 325.5,200.5C 325.795,202.735 325.461,204.735 324.5,206.5C 324.923,204.219 324.256,202.552 322.5,201.5 Z"/></g>
<g><path style="opacity:1" fill="#9ccda9" d="M 396.5,200.5 C 394.193,202.047 391.527,202.713 388.5,202.5C 386.304,202.495 384.304,202.162 382.5,201.5C 387.214,201.647 391.881,201.314 396.5,200.5 Z"/></g>
<g><path style="opacity:1" fill="#aed6b9" d="M 196.5,208.5 C 202.797,209.32 209.131,209.653 215.5,209.5C 213.022,210.164 210.355,210.497 207.5,210.5C 203.531,210.706 199.865,210.039 196.5,208.5 Z"/></g>
</svg>
