<?xml version="1.0" encoding="UTF-8"?>
<svg id="Layer_1" xmlns="http://www.w3.org/2000/svg" version="1.1" viewBox="0 0 19.9 19.9">
  <!-- Generator: Adobe Illustrator 29.4.0, SVG Export Plug-In . SVG Version: 2.1.0 Build 152)  -->
  <defs>
    <style>
      .st0 {
        fill-rule: evenodd;
      }
    </style>
  </defs>
  <path class="st0" d="M10,.2C4.5.2,0,4.7,0,10.2s2.9,8.1,6.8,9.5c.5,0,.7-.2.7-.5s0-.9,0-1.7c-2.8.6-3.4-1.3-3.4-1.3-.5-1.2-1.1-1.5-1.1-1.5-.9-.6,0-.6,0-.6,1,0,1.5,1,1.5,1,.9,1.5,2.3,1.1,2.9.8,0-.6.4-1.1.6-1.3-2.2-.3-4.5-1.1-4.5-4.9s.4-2,1-2.7c-.1-.3-.4-1.3,0-2.6,0,0,.8-.3,2.7,1,.8-.2,1.7-.3,2.5-.3.8,0,1.7.1,2.5.3,1.9-1.3,2.7-1,2.7-1,.5,1.4.2,2.4,0,2.6.6.7,1,1.6,1,2.7,0,3.8-2.3,4.7-4.6,4.9.4.3.7.9.7,1.8,0,1.3,0,2.4,0,2.7s.2.6.7.5c4-1.3,6.8-5.1,6.8-9.5S15.5.2,10,.2Z"/>
</svg>